<?xml version="1.0" encoding="UTF-8" standalone="no"?>
<svg
   xmlns:dc="http://purl.org/dc/elements/1.1/"
   xmlns:cc="http://creativecommons.org/ns#"
   xmlns:rdf="http://www.w3.org/1999/02/22-rdf-syntax-ns#"
   xmlns:svg="http://www.w3.org/2000/svg"
   xmlns="http://www.w3.org/2000/svg"
   xmlns:sodipodi="http://sodipodi.sourceforge.net/DTD/sodipodi-0.dtd"
   xmlns:inkscape="http://www.inkscape.org/namespaces/inkscape"
   height="280"
   viewBox="0 0 292 280"
   width="292"
   id="svg3336"
   version="1.1"
   inkscape:version="0.91 r13725"
   sodipodi:docname="sprite.svg">
  <metadata
     id="metadata3855">
    <rdf:RDF>
      <cc:Work
         rdf:about="">
        <dc:format>image/svg+xml</dc:format>
        <dc:type
           rdf:resource="http://purl.org/dc/dcmitype/StillImage" />
      </cc:Work>
    </rdf:RDF>
  </metadata>
  <defs
     id="defs3853" />
  <sodipodi:namedview
     pagecolor="#ffffff"
     bordercolor="#666666"
     borderopacity="1"
     objecttolerance="10"
     gridtolerance="10"
     guidetolerance="10"
     inkscape:pageopacity="0"
     inkscape:pageshadow="2"
     inkscape:window-width="1639"
     inkscape:window-height="999"
     id="namedview3851"
     showgrid="false"
     showguides="true"
     inkscape:guide-bbox="true"
     inkscape:zoom="3.3892857"
     inkscape:cx="174.24303"
     inkscape:cy="196.7528"
     inkscape:window-x="365"
     inkscape:window-y="82"
     inkscape:window-maximized="0"
     inkscape:current-layer="layer1">
    <sodipodi:guide
       position="157.85037,271.14858"
       orientation="0,1"
       id="guide3861" />
    <sodipodi:guide
       position="207.12329,210.36881"
       orientation="0,1"
       id="guide3863" />
    <sodipodi:guide
       position="139.55743,144.86828"
       orientation="1,0"
       id="guide3865" />
    <sodipodi:guide
       position="123.32982,116.83878"
       orientation="1,0"
       id="guide3867" />
    <sodipodi:guide
       position="188.83035,257.5764"
       orientation="0,1"
       id="guide4677" />
    <sodipodi:guide
       position="200.04215,220.40042"
       orientation="0,1"
       id="guide4679" />
  </sodipodi:namedview>
  <g
     inkscape:groupmode="layer"
     id="layer1"
     inkscape:label="Layer 1">
    <rect
       style="fill:#000000;fill-opacity:1;fill-rule:evenodd;stroke:#000000;stroke-width:1.28185427px;stroke-linecap:butt;stroke-linejoin:miter;stroke-opacity:1"
       id="rect3869"
       width="20.961559"
       height="77.315628"
       x="116.45494"
       y="1.9112097" />
  </g>
  <svg
     height="72"
     viewBox="0 0 124 72"
     width="124"
     x="5"
     y="5"
     id="svg3338"
     version="1.1">
    <rect
       x="16.885"
       y="20.398"
       fill="#231F20"
       width="2.978"
       height="2.958"
       id="rect3340" />
    <path
       fill="#231F20"
       d="M16.836,36.256h17V36.25c3.486-0.105,4.759-2.183,4.759-4.729v-11.15h-2.978v11.15  c0,0.295-0.073,0.592-0.224,0.864c-0.297,0.541-0.669,0.913-1.836,0.913h-6.232c-0.348-0.32-0.596-0.766-0.769-1.333  c-0.424-1.307-0.075-2.344,1.042-3.183c0.397-0.272,0.893-0.418,1.512-0.418c1.244,0,2.211,0.541,2.905,1.602l2.059-2.268  c-0.893-1.16-2.059-1.901-3.474-2.221c-1.49-0.344-2.854-0.172-4.144,0.471c-1.217,0.739-2.109,1.7-2.605,2.886  c-0.324,0.764-0.497,1.553-0.497,2.392c0,0.691,0.149,1.381,0.423,2.073h-2.25v-8.066h-4.689c-2.656,0-4.765,2.12-4.765,4.734  h-0.024v1.555h0.024c0,0.641,0.1,1.231,0.322,1.776h-2.362v-5.822H9.982v-2.243H5.291c-2.632,0-4.765,2.096-4.791,4.711v6.313h6.428  c-0.497,2.024-2.333,3.529-4.518,3.529H0.699v2.96h1.712c3.822,0,6.999-2.837,7.545-6.489h6.707 M7.003,33.297H3.478v-3.331h0.025  c0-0.319,0.073-0.616,0.199-0.862c0.322-0.543,0.893-0.914,1.588-0.914h1.712V33.297z M15.049,31.521h-0.025v-1.555h0.025  c0-0.295,0.075-0.592,0.199-0.837c0.322-0.568,0.893-0.939,1.588-0.939h1.712v5.107h-1.812c-0.272,0-0.546-0.1-0.767-0.224  C15.422,32.779,15.049,32.211,15.049,31.521"
       id="path3342" />
    <rect
       x="40.68"
       y="20.372"
       fill="#231F20"
       width="2.977"
       height="15.885"
       id="rect3344" />
    <rect
       x="53.007"
       y="20.398"
       fill="#231F20"
       width="2.978"
       height="2.958"
       id="rect3346" />
    <rect
       x="57.026"
       y="20.398"
       fill="#231F20"
       width="2.978"
       height="2.958"
       id="rect3348" />
    <rect
       x="81.467"
       y="20.443"
       fill="#231F20"
       width="2.977"
       height="2.96"
       id="rect3350" />
    <rect
       x="92.333"
       y="20.398"
       fill="#231F20"
       width="2.978"
       height="2.958"
       id="rect3352" />
    <path
       fill="#231F20"
       d="M107.475,34.802v-7.327h-4.691c-2.63,0-4.764,2.122-4.764,4.736v1.086h-0.922  c-0.67,0-1.266-0.395-1.565-0.963c-0.148-0.248-0.222-0.541-0.222-0.84v-5.672h-2.978v5.672c0,0.322-0.073,0.619-0.222,0.865  c-0.299,0.543-0.893,0.938-1.565,0.938h-0.594v-2.641c0-2.565-2.011-4.637-4.567-4.734h-4.343c-1.266,0-2.408,0.493-3.275,1.282  v-6.809h-2.98v12.901h-2.306v0.002H72.07v-5.822H67.38c-2.629,0-4.764,2.122-4.764,4.736v1.086H59.93V25.23h-4.691  c-2.629,0-4.764,2.096-4.764,4.713H50.45v1.579h0.025c0,2.614,2.135,4.734,4.764,4.734h7.576c0.619,1.899,2.406,3.281,4.518,3.281  h0.024c2.109,0,3.896-1.381,4.518-3.281h2.507v-0.002h0.407v0.027h2.98v-0.027h11.961v0.002h0.818c1.266,0,2.432-0.492,3.277-1.307  c0.793,0.744,1.816,1.219,2.953,1.295v0.012h1.441c0.621,1.899,2.408,3.281,4.518,3.281h0.025c2.63,0,4.74-2.122,4.74-4.734   M56.953,33.297H55.19c-0.299-0.025-0.57-0.1-0.818-0.224c-0.546-0.295-0.918-0.887-0.918-1.552h-0.027v-1.555h0.027  c0-0.32,0.073-0.617,0.197-0.862c0.324-0.543,0.894-0.914,1.588-0.914h1.714V33.297z M69.094,35.023  c-0.025,0.246-0.075,0.444-0.199,0.641c-0.299,0.541-0.869,0.913-1.539,0.913s-1.266-0.371-1.563-0.913  c-0.149-0.271-0.224-0.543-0.224-0.862v-2.591h0.025c0-0.32,0.075-0.592,0.222-0.864c0.299-0.543,0.869-0.913,1.563-0.913h1.714  V35.023z M86.974,33.295h-9.207v-3.009c0.173-0.815,0.894-1.407,1.762-1.407h5.658c0.993,0,1.787,0.789,1.787,1.776V33.295z   M104.496,35.023c-0.024,0.246-0.098,0.444-0.199,0.641c-0.297,0.541-0.893,0.913-1.538,0.913c-0.696,0-1.266-0.371-1.563-0.913  c-0.149-0.271-0.226-0.543-0.226-0.862v-2.591h0.025c0-0.32,0.075-0.592,0.2-0.864c0.322-0.543,0.893-0.913,1.587-0.913h1.712  V35.023z"
       id="path3354" />
    <rect
       x="17.671"
       y="41.973"
       fill="#231F20"
       width="2.381"
       height="2.366"
       id="rect3356" />
    <rect
       x="14.458"
       y="41.973"
       fill="#231F20"
       width="2.381"
       height="2.366"
       id="rect3358" />
    <rect
       x="38.871"
       y="56.939"
       fill="#231F20"
       width="2.381"
       height="2.365"
       id="rect3360" />
    <rect
       x="42.083"
       y="56.939"
       fill="#231F20"
       width="2.381"
       height="2.365"
       id="rect3362" />
    <path
       fill="#231F20"
       d="M57.345,50.865c0,0.236-0.058,0.472-0.178,0.69c-0.238,0.435-0.536,0.73-1.468,0.73H44.464v-0.02  c-0.536,0-1.011-0.297-1.251-0.749c-0.119-0.197-0.178-0.433-0.178-0.67v-4.535h-2.379v4.535c0,0.255-0.059,0.491-0.18,0.688  c-0.238,0.433-0.713,0.75-1.249,0.75H19.993v-6.448h-3.751c-2.103,0-3.808,1.677-3.808,3.765h-0.02v1.263h0.02  c0,2.09,1.706,3.785,3.808,3.785h22.985c1.011,0,1.943-0.413,2.619-1.044c0.694,0.631,1.607,1.024,2.619,1.024v0.02h11.274  c2.926-0.015,3.988-1.705,3.988-3.785v-8.912h-2.381 M17.612,52.285h-1.409c-0.238-0.02-0.457-0.079-0.653-0.177  c-0.438-0.238-0.735-0.71-0.735-1.243h-0.02v-1.241h0.02c0-0.256,0.059-0.494,0.16-0.69c0.256-0.433,0.714-0.732,1.268-0.732h1.37  V52.285z"
       id="path3364" />
    <path
       fill="#231F20"
       d="M70.696,45.837h-3.769c-2.103,0-3.807,1.677-3.807,3.765H63.1v5.048h5.137  c-0.377,1.617-1.865,2.82-3.61,2.82h-1.37v2.366h1.37c3.37,0,6.089-2.722,6.089-6.053v-6.151h-0.02 M68.315,52.285h-2.836v-2.661  h0.019c0-0.256,0.061-0.494,0.18-0.69c0.238-0.433,0.714-0.732,1.249-0.732h1.388V52.285z"
       id="path3366" />
    <path
       fill="#231F20"
       d="M87.597,50.865c0,0.236-0.059,0.472-0.18,0.69c-0.239,0.435-0.536,0.73-1.468,0.73h-3.438  c-1.152,0-1.507-0.434-1.667-1.044c-0.02-0.12-0.041-0.238-0.059-0.358v-0.019c-0.497-2.859-2.997-5.028-6.011-5.028v2.365  c1.765,0,3.233,1.204,3.63,2.82c-0.019,0.199-0.08,0.376-0.18,0.533c-0.236,0.435-0.713,0.73-1.247,0.73h-3.593v2.365h3.593  c1.011,0,1.943-0.395,2.617-1.024c0.589,0.548,0.981,0.919,2.281,1.005v0.019h4.4v-0.007c2.709-0.121,3.701-1.768,3.701-3.778  v-8.912h-2.379"
       id="path3368" />
    <rect
       x="92.868"
       y="41.955"
       fill="#231F20"
       width="2.381"
       height="12.697"
       id="rect3370" />
  </svg>
  <svg
     height="72"
     viewBox="0 0 107 72"
     width="107"
     x="134"
     y="5"
     id="svg3372"
     version="1.1">
    <path
       fill="#231F20"
       d="M79.267,51.556c0,0.889,0.262,1.317,1.084,1.317c0.824,0,1.088-0.428,1.088-1.317v-6.022    c0-0.889-0.264-1.317-1.088-1.317c-0.822,0-1.084,0.428-1.084,1.317V51.556z M77.227,45.484c0-1.68,0.986-3.046,3.125-3.046    c2.139,0,3.128,1.366,3.128,3.046v6.121c0,1.68-0.99,3.046-3.128,3.046c-2.139,0-3.125-1.366-3.125-3.046V45.484z"
       id="path3374" />
    <path
       fill="#231F20"
       d="M69.862,46.569v-0.922c0-1.003-0.461-1.431-0.988-1.431c-0.824,0-1.086,0.428-1.086,1.317v6.024    c0,0.889,0.262,1.317,1.086,1.317c0.741,0,0.988-0.428,0.988-1.201V50.24h2.04v1.366c0,1.68-0.988,3.046-3.028,3.046    c-2.141,0-3.126-1.366-3.126-3.046v-6.123c0-1.68,0.986-3.046,3.126-3.046c2.04,0,3.028,1.482,3.028,3.258v0.873H69.862z"
       id="path3376" />
    <rect
       x="17.523"
       y="42.608"
       fill="#231F20"
       width="2.048"
       height="11.928"
       id="rect3378" />
    <polygon
       fill="#231F20"
       points="21.562,54.536 21.562,42.608 23.462,42.608 25.958,49.431 25.992,49.431 25.992,42.608    27.841,42.608 27.841,54.536 26.057,54.536 23.445,47.085 23.413,47.085 23.413,54.536   "
       id="polygon3380" />
    <polygon
       fill="#231F20"
       points="30.769,44.393 28.786,44.393 28.786,42.609 34.8,42.609 34.8,44.393 32.817,44.393 32.817,54.537    30.769,54.537   "
       id="polygon3382" />
    <polygon
       fill="#231F20"
       points="35.746,54.536 35.746,42.608 41.232,42.608 41.232,44.392 37.796,44.392 37.796,47.465    40.437,47.465 40.437,49.249 37.796,49.249 37.796,52.754 41.462,52.754 41.462,54.536   "
       id="polygon3384" />
    <path
       fill="#231F20"
       d="M44.727,47.96h0.727c1.106,0,1.52-0.414,1.52-1.831c0-1.423-0.414-1.837-1.52-1.837h-0.727V47.96z     M44.727,54.536h-2.048V42.608h2.874c2.297,0,3.471,0.974,3.471,3.521c0,1.914-0.743,2.691-1.437,3.004l1.733,5.403h-2.082    l-1.455-4.94c-0.262,0.035-0.692,0.049-1.057,0.049V54.536z"
       id="path3386" />
    <polygon
       fill="#231F20"
       points="50.611,54.536 50.611,42.608 52.512,42.608 55.006,49.431 55.039,49.431 55.039,42.608    56.89,42.608 56.89,54.536 55.106,54.536 52.496,47.085 52.463,47.085 52.463,54.536   "
       id="polygon3388" />
    <path
       fill="#231F20"
       d="M60.698,50.109h1.652l-0.81-5.123h-0.032L60.698,50.109z M60.035,54.536h-1.983l2.198-11.928h2.545    l2.198,11.928h-1.981l-0.365-2.643H60.4L60.035,54.536z"
       id="path3390" />
    <rect
       x="73.366"
       y="42.608"
       fill="#231F20"
       width="2.048"
       height="11.928"
       id="rect3392" />
    <polygon
       fill="#231F20"
       points="85.291,54.536 85.291,42.608 87.191,42.608 89.685,49.431 89.717,49.431 89.717,42.608    91.57,42.608 91.57,54.536 89.784,54.536 87.176,47.085 87.142,47.085 87.142,54.536   "
       id="polygon3394" />
    <path
       fill="#231F20"
       d="M95.396,50.109h1.654l-0.81-5.123h-0.034L95.396,50.109z M94.736,54.536h-1.983l2.198-11.928h2.545    l2.198,11.928h-1.985l-0.363-2.643h-2.245L94.736,54.536z"
       id="path3396" />
    <polygon
       fill="#231F20"
       points="100.878,54.536 100.878,42.608 102.925,42.608 102.925,52.754 106.148,52.754 106.148,54.536    "
       id="polygon3398" />
    <rect
       x="60.809"
       y="17.592"
       fill="#231F20"
       width="3.402"
       height="19.808"
       id="rect3400" />
    <path
       fill="#231F20"
       d="M73.183,22.475c-0.138-1.701-1.043-2.194-1.812-2.194c-1.096,0-1.699,0.712-1.699,1.948    c0,3.373,6.913,4.993,6.913,10.369c0,3.264-2.196,5.076-5.378,5.076c-3.154,0-4.966-2.525-5.102-5.488l3.237-0.465    c0.138,2.003,0.932,2.991,2.028,2.991c1.181,0,1.977-0.631,1.977-1.812c0-3.923-6.915-4.966-6.915-10.643    c0-3.156,1.922-4.938,5.267-4.938c2.772,0,4.418,2.003,4.719,4.8L73.183,22.475z"
       id="path3402" />
    <polygon
       fill="#231F20"
       points="80.271,20.555 76.979,20.555 76.979,17.592 86.965,17.592 86.965,20.555 83.673,20.555    83.673,37.4 80.271,37.4   "
       id="polygon3404" />
    <path
       fill="#231F20"
       d="M90.538,16.549h-2.279l2.168-3.951h3.702L90.538,16.549z M88.508,17.592h3.402V37.4h-3.402V17.592z"
       id="path3406" />
    <path
       fill="#231F20"
       d="M96.764,37.398h-3.292l3.649-19.806h4.225l3.649,19.806h-3.292l-0.603-4.388h-3.73L96.764,37.398z     M97.862,30.047h2.742l-1.342-8.504h-0.055L97.862,30.047z"
       id="path3408" />
    <path
       fill="#231F20"
       d="M21.482,30.042h2.744l-1.344-8.512h-0.053L21.482,30.042z M20.384,37.399h-3.296l3.653-19.821h4.228    l3.651,19.821h-3.294l-0.605-4.394h-3.734L20.384,37.399z"
       id="path3410" />
    <polygon
       fill="#231F20"
       points="44.13,17.578 44.13,37.399 41.164,37.399 41.164,21.915 41.11,21.915 38.035,37.399    36.387,37.399 33.314,21.915 33.259,21.915 33.259,37.399 30.294,37.399 30.294,17.578 34.769,17.578 37.184,29.163    37.239,29.163 39.656,17.578   "
       id="polygon3412" />
    <polygon
       fill="#231F20"
       points="47.253,37.399 47.253,17.578 50.411,17.578 54.557,28.917 54.612,28.917 54.612,17.578    57.685,17.578 57.685,37.399 54.72,37.399 50.383,25.016 50.328,25.016 50.328,37.399   "
       id="polygon3414" />
  </svg>
  <svg
     height="72"
     viewBox="0 0 107 72"
     width="107"
     x="5"
     y="82"
     id="svg3416"
     version="1.1">
    <path
       fill="#231F20"
       d="M21.902,29.918l1.362-8.617h0.055l1.362,8.617H21.902z M21.153,17.3l-3.696,20.066h3.335l0.611-4.447h3.779   l0.611,4.447h3.337L25.432,17.3H21.153z"
       id="path3418" />
    <polygon
       fill="#231F20"
       points="33.824,21.691 33.88,21.691 36.992,37.367 38.662,37.367 41.777,21.691 41.828,21.691   41.828,37.367 44.832,37.367 44.832,17.301 40.3,17.301 37.854,29.028 37.798,29.028 35.354,17.301 30.824,17.301 30.824,37.367   33.824,37.367  "
       id="polygon3420" />
    <polygon
       fill="#231F20"
       points="55.443,28.777 55.386,28.777 51.191,17.3 47.994,17.3 47.994,37.366 51.106,37.366 51.106,24.833   51.162,24.833 55.554,37.366 58.556,37.366 58.556,17.3 55.443,17.3  "
       id="polygon3422" />
    <polygon
       fill="#231F20"
       points="71.335,34.363 65.164,34.363 65.164,28.472 69.61,28.472 69.61,25.47 65.164,25.47 65.164,20.299   70.948,20.299 70.948,17.299 61.717,17.299 61.717,37.367 71.335,37.367  "
       id="polygon3424" />
    <path
       fill="#231F20"
       d="M75.945,21.996c0-1.252,0.611-1.975,1.723-1.975c0.779,0,1.695,0.503,1.835,2.226l3.28-0.361   c-0.306-2.837-1.975-4.865-4.782-4.865c-3.391,0-5.334,1.806-5.334,5.003c0,5.756,7.002,6.811,7.002,10.783   c0,1.197-0.806,1.835-2.001,1.835c-1.112,0-1.918-0.999-2.058-3.03l-3.28,0.471c0.14,3.004,1.973,5.559,5.173,5.559   c3.223,0,5.447-1.833,5.447-5.139C82.949,27.057,75.945,25.417,75.945,21.996"
       id="path3426" />
    <polygon
       fill="#231F20"
       points="86.901,37.367 90.349,37.367 90.349,20.301 93.685,20.301 93.685,17.301 83.566,17.301   83.566,20.301 86.901,20.301  "
       id="polygon3428" />
    <polygon
       fill="#231F20"
       points="100.31,24.942 100.257,24.942 97.838,17.301 94.333,17.301 98.504,29.028 98.504,37.367   101.952,37.367 101.952,29.028 106.12,17.301 102.619,17.301  "
       id="polygon3430" />
    <rect
       x="17.909"
       y="42.624"
       fill="#231F20"
       width="2.076"
       height="12.092"
       id="rect3432" />
    <polygon
       fill="#231F20"
       points="21.807,54.716 21.807,42.624 23.733,42.624 26.262,49.54 26.296,49.54 26.296,42.624   28.172,42.624 28.172,54.716 26.363,54.716 23.715,47.162 23.684,47.162 23.684,54.716  "
       id="polygon3434" />
    <polygon
       fill="#231F20"
       points="31.086,44.432 29.075,44.432 29.075,42.623 35.172,42.623 35.172,44.432 33.163,44.432   33.163,54.717 31.086,54.717  "
       id="polygon3436" />
    <polygon
       fill="#231F20"
       points="36.094,54.716 36.094,42.624 41.655,42.624 41.655,44.432 38.169,44.432 38.169,47.549   40.85,47.549 40.85,49.356 38.169,49.356 38.169,52.907 41.889,52.907 41.889,54.716  "
       id="polygon3438" />
    <path
       fill="#231F20"
       d="M45.305,54.717h-2.076V42.623h2.914c1.161,0,2.038,0.274,2.63,0.822c0.591,0.546,0.887,1.463,0.887,2.746   c0,0.491-0.041,0.911-0.124,1.256c-0.085,0.347-0.197,0.641-0.335,0.879c-0.14,0.24-0.298,0.434-0.469,0.578   c-0.173,0.146-0.349,0.258-0.528,0.337l1.758,5.476h-2.109l-1.475-5.009c-0.134,0.024-0.3,0.037-0.495,0.041   c-0.195,0.008-0.386,0.01-0.578,0.01V54.717z M45.338,48.05h0.737c0.278,0,0.516-0.028,0.712-0.083   c0.195-0.057,0.355-0.156,0.477-0.302c0.122-0.146,0.213-0.337,0.268-0.578c0.055-0.241,0.085-0.54,0.085-0.897   c0-0.714-0.118-1.202-0.353-1.465s-0.631-0.394-1.189-0.394h-0.737V48.05z"
       id="path3440" />
    <polygon
       fill="#231F20"
       points="51.302,54.716 51.302,42.624 53.228,42.624 55.757,49.54 55.79,49.54 55.79,42.624 57.667,42.624   57.667,54.716 55.857,54.716 53.21,47.162 53.178,47.162 53.178,54.716  "
       id="polygon3442" />
    <path
       fill="#231F20"
       d="M60.831,54.716h-2.011l2.228-12.092h2.58l2.228,12.092h-2.011l-0.369-2.679H61.2L60.831,54.716z    M61.502,50.227h1.674l-0.82-5.192h-0.034L61.502,50.227z"
       id="path3444" />
    <polygon
       fill="#231F20"
       points="67.715,44.432 65.705,44.432 65.705,42.623 71.802,42.623 71.802,44.432 69.793,44.432   69.793,54.717 67.715,54.717  "
       id="polygon3446" />
    <rect
       x="72.924"
       y="42.624"
       fill="#231F20"
       width="2.076"
       height="12.092"
       id="rect3448" />
    <path
       fill="#231F20"
       d="M76.66,45.555c0-0.424,0.063-0.826,0.191-1.206c0.128-0.378,0.323-0.71,0.587-0.988   c0.262-0.28,0.591-0.499,0.988-0.662c0.396-0.162,0.867-0.242,1.415-0.242s1.019,0.081,1.415,0.242   c0.396,0.164,0.725,0.382,0.988,0.662c0.262,0.278,0.457,0.609,0.585,0.988c0.128,0.38,0.193,0.783,0.193,1.206v6.231   c0,0.424-0.065,0.826-0.193,1.204c-0.128,0.38-0.323,0.71-0.585,0.99c-0.262,0.278-0.591,0.499-0.988,0.66   s-0.867,0.244-1.415,0.244s-1.019-0.083-1.415-0.244s-0.725-0.382-0.988-0.66c-0.264-0.28-0.459-0.609-0.587-0.99   c-0.128-0.378-0.191-0.781-0.191-1.204V45.555z M78.736,51.735c0,0.459,0.079,0.796,0.235,1.013   c0.158,0.219,0.447,0.327,0.871,0.327s0.714-0.108,0.871-0.327c0.156-0.217,0.235-0.554,0.235-1.013v-6.129   c0-0.459-0.079-0.796-0.235-1.013c-0.158-0.219-0.447-0.327-0.871-0.327s-0.714,0.108-0.871,0.327   c-0.156,0.217-0.235,0.554-0.235,1.013V51.735z"
       id="path3450" />
    <polygon
       fill="#231F20"
       points="84.608,54.716 84.608,42.624 86.534,42.624 89.063,49.54 89.097,49.54 89.097,42.624   90.974,42.624 90.974,54.716 89.164,54.716 86.517,47.162 86.485,47.162 86.485,54.716  "
       id="polygon3452" />
    <path
       fill="#231F20"
       d="M93.978,54.716h-2.011l2.228-12.092h2.58l2.228,12.092h-2.011l-0.369-2.679h-2.277L93.978,54.716z    M94.648,50.227h1.674l-0.82-5.192h-0.034L94.648,50.227z"
       id="path3454" />
    <polygon
       fill="#231F20"
       points="99.893,54.716 99.893,42.624 101.971,42.624 101.971,52.907 105.235,52.907 105.235,54.716  "
       id="polygon3456" />
  </svg>
  <svg
     height="72"
     viewBox="0 0 62 72"
     width="62"
     x="117"
     y="82"
     id="svg3458"
     version="1.1">
    <g
       id="g3460">
      <path
         fill="#231F20"
         d="M40.526,40.123c-0.227-0.099-0.256-0.81-0.386-0.81c-0.197,0-0.298,0.647-0.68,0.743   c-0.394,0.067-0.976-0.42-1.141-0.294c-0.164,0.134,0.367,1.055-0.509,1.055c-0.262,0-0.396-0.298-0.396-0.524v-7.075   c0,0,0.03-0.01,0.422,0.087c0.258,0.067,0.518,0.195,0.518,0.554c0,0.191-0.069,0.582,0.063,0.649   c0.136,0.067,0.227-0.067,0.294-0.099c1.199-0.875,1.492,0.68,1.751,0.68c0.229,0,0.197-1.068,0.52-1.068   c0.262-0.101,2.76,1.102,2.76,1.883c0,0.162-0.327,0.191-0.355,0.357c-0.032,0.229,0.584,0.323,0.485,0.747   c-0.035,0.262-0.617,0.585-0.457,0.745c0.168,0.164,0.946-0.16,1.011-0.16c0.162,0,0.191,0.256,0.191,0.355   C44.617,39.378,41.276,40.45,40.526,40.123 M31.632,41.255c-0.195-0.319-0.099-0.873-0.292-0.873c-0.097,0-0.615,0.781-0.911,0.781   c-0.29,0-0.777-0.554-0.972-0.554c-0.13,0,0.13,0.781-0.13,1.102c-0.164,0.229-1.721,0.396-1.721,0.199V30.87   c0-0.518,0.392-0.714,0.745-0.714l5.811-0.002c0.712,0,1.005,0.225,1.005,0.972l0.006,9.908   C35.174,41.357,31.76,41.487,31.632,41.255 M35.172,55.249c0,0.684-0.231,0.844-0.812,0.716l-6.2-1.234   c-0.359-0.063-0.554-0.292-0.554-0.68V42.818c0-0.292,1.007-0.325,1.169-0.195c0.294,0.26,0.195,1.201,0.388,1.201   c0.262,0,0.942-1.137,1.236-1.137c0.617,0,1.037,0.357,1.167,0.294c0.132-0.067,0.132-0.585,0.292-0.716   c0.227-0.158,0.909-0.158,1.266-0.197c0.587-0.032,1.658-0.128,1.658-0.128c0.422,0,0.39,0.296,0.39,0.913V55.249z M28.484,22.657   c0-4.481,6.624-7.045,7.077-9.318c0.487,0.455,0.552,1.201,0.552,1.851c0,2.726-4.739,7.304-4.739,10.615   c0,0.359,0.032,0.453,0.032,0.682c0,0.323-0.13,0.39-0.193,0.39C30.429,26.878,28.484,25.35,28.484,22.657 M24.815,50.674   c-0.518,0-0.844-1.041-0.974-1.005c-0.162,0.034,0.035,0.875-0.162,1.005c-0.162,0.16-3.604-1.429-3.864-1.685   c-0.229-0.229,0.099-0.552,0-0.781c-0.065-0.195-0.587-0.132-0.745-0.231c-0.132-0.128,0.158-0.716-0.032-0.842   c-0.168-0.099-0.52,0.585-0.749,0.256c-0.101-0.13-0.128-0.355-0.128-0.647c0-1.981,2.107-2.791,3.538-3.278   c0.582-0.197,0.384,0.55,0.582,0.584c0.227,0.065,0.26-0.357,0.52-0.357c0.197,0,0.944,0.357,1.104,0.227   c0.13-0.097-0.388-0.584-0.227-0.779c0.197-0.162,1.703-0.446,1.689-0.059l0.004,6.937C25.373,50.747,24.815,50.674,24.815,50.674    M45.204,38.726c0.357-0.615,0.357-1.362,0.487-1.656c0.191-0.323,0.907-0.26,0.907-0.487c0-0.095-0.518-0.225-0.716-0.355   c-0.384-0.227-0.254-1.396-0.449-1.396c-0.296,0-0.587,0.81-0.881,0.455c-0.516-0.651-2.661-1.885-3.633-2.241   c-0.359-0.13,0.26-1.201,0.099-1.301c-0.164-0.097-0.585,0.653-1.202,0.522c-0.487-0.099-0.26-0.976-0.52-0.976   c-0.13,0-0.619,1.234-0.976,1.135c-0.39-0.097-0.905-0.237-0.905-0.237v-3.235c0-0.552-0.371-0.98-0.848-0.976h-3.507   c-0.974,0-0.909-0.714-0.909-0.877c0-4.317,6.267-5.031,6.267-10.679c0-2.468-1.557-4.124-3.375-5.587c-0.101-0.063,0,0.359,0,0.52   c0,2.63-9.774,3.994-9.774,10.065c0,5.289,5.261,5.516,5.261,6.33c0,0.162-0.323,0.227-0.357,0.227h-4.025   c-0.422,0-0.789,0.26-0.783,0.968l0.004,3.253c-0.392,0.13-0.909-0.455-1.171-0.455c-0.13,0-0.063,1.007-0.292,1.139   c-0.195,0.095-3.862,1.394-4.191,1.427c-0.515,0.097-0.384-0.812-0.676-0.812c-0.264,0-0.264,0.909-0.913,0.909   c-0.388,0-0.712-0.359-1.003-0.359c-0.195,0,0.42,0.749,0.42,0.974c0,0.619-1.199,0.844-1.199,1.268   c0,0.227,1.134-0.097,1.297-0.097c0.584,0,0.52,0.684,0.743,0.684c0.229,0,0.39-0.785,0.587-0.911   c0.386-0.227,0.844,0.162,1.039,0.162c0.323,0-0.26-0.781,0.034-0.911c0,0,3.956-1.685,4.219-1.557   c0.227,0.132,0.197,0.52,0.455,0.651c0.258,0.128,0.651-0.909,0.651-0.262v7.956c-0.457,0.288-1.431,0.455-1.952,0.455   c-0.256,0-0.13-0.846-0.292-0.846c-0.26,0-0.52,0.714-0.909,0.714c-0.357,0-0.875-0.875-1.23-0.875   c-0.227,0,0.418,1.102,0.03,1.297c-1.496,0.749-3.864,1.463-3.864,3.828c0,0.491,0.262,1.078,0.16,1.234   c-0.093,0.231-0.611,0.684-0.582,0.879c0,0.195,0.974,0.128,1.171,0.424c0.095,0.158,0.162,0.873,0.359,0.873   c0.158,0,0.58-0.55,0.94-0.357c1.133,0.684,3.113,1.427,4.025,1.92c0.223,0.13,0.095,0.842,0.223,0.907   c0.262,0.13,0.779-0.682,1.595-0.229c0.164,0.067,0.325,0.327,0.325,0.619l-0.004,2.655c0,0.487,0.225,0.615,0.487,0.68   l9.679,1.926c0,0,0.86,0.193,1.151,0.193c0.337,0.014,0.755-0.002,0.731-0.816l-0.004-6.034c0-0.061,0.077-0.209,0.207-0.209   c0.568-0.002,0.282,1.636,0.41,1.636c0.258,0,0.422-1.104,0.749-1.104c0.453,0,0.749,0.422,0.938,0.325   c0.164-0.097-0.093-0.619-0.093-0.944c0-0.29,0.84-0.42,1.881-0.81c0.909-0.321,1.656-0.68,1.95-0.68   c0.225,0,0.384,0.615,0.584,0.615c0.162,0,0.193-0.808,0.552-0.808c0.29,0,0.938,0.451,1.104,0.321   c0.128-0.095-0.325-0.714,0.03-0.976c0.262-0.162,0.877-0.548,0.877-0.712c0-0.097-1.201-0.132-1.266-0.132   c-0.227-0.063-0.487-0.777-0.653-0.777c-0.187,0-0.187,0.714-0.483,0.94c-0.262,0.193-0.909-0.682-1.199-0.682   c-0.166,0,0.191,0.651,0.191,1.173c0,0.516-3.146,1.524-3.568,1.524c-0.651,0-0.684-0.812-0.814-0.812   c-0.195,0-0.189,0.992-0.907,0.992c-0.359,0-0.487-0.268-0.487-0.461v-7.795c0-0.223,0.065-0.526,0.487-0.544   c0.534-0.024,0.548,1.185,0.743,1.185c0.357,0,0.554-1.201,1.234-1.201c0.52,0,0.942,0.716,1.268,0.716   c0.227,0-0.388-0.747-0.388-1.106C40.757,40.772,43.97,40.902,45.204,38.726"
         id="path3462" />
    </g>
  </svg>
  <svg
     height="46"
     viewBox="0 0 50 46"
     width="50"
     x="184"
     y="82"
     id="svg3464"
     version="1.1">
    <path
       fill="#FFFFFF"
       d="M26.1,32.4l-1.5-1.5l7.8-7.9l-7.9-7.9l1.6-1.5l9.4,9.4L26.1,32.4z"
       id="path3466" />
    <path
       fill="#FFFFFF"
       d="M16.1,32.4l-1.5-1.5l7.8-7.9l-7.9-7.9l1.6-1.5l9.4,9.4L16.1,32.4z"
       id="path3468" />
  </svg>
  <svg
     height="46"
     viewBox="0 0 50 46"
     width="50"
     x="5"
     y="159"
     id="svg3470"
     version="1.1">
    <path
       fill="#FFFFFF"
       d="M15.6,24.1l1.5-1.5l7.9,7.8l7.9-7.9l1.5,1.6L25,33.5L15.6,24.1z"
       id="path3472" />
    <path
       fill="#FFFFFF"
       d="M15.6,14.1l1.5-1.5l7.9,7.8l7.9-7.9l1.5,1.6L25,23.5L15.6,14.1z"
       id="path3474" />
  </svg>
  <svg
     height="46"
     viewBox="0 0 50 46"
     width="50"
     x="60"
     y="159"
     id="svg3476"
     version="1.1">
    <path
       fill="#FFFFFF"
       d="M23.9,13.6l1.5,1.5L17.6,23l7.9,7.9l-1.6,1.5L14.5,23L23.9,13.6z"
       id="path3478" />
    <path
       fill="#FFFFFF"
       d="M33.9,13.6l1.5,1.5L27.6,23l7.9,7.9l-1.6,1.5L24.5,23L33.9,13.6z"
       id="path3480" />
  </svg>
  <svg
     height="17.2"
     viewBox="0 0 32 18"
     width="31.3"
     x="184"
     y="133"
     id="svg3482"
     version="1.1">
    <circle
       fill="#FFFFFF"
       cx="15.6"
       cy="8.6"
       r="2.1"
       id="circle3484" />
    <path
       fill="#FFFFFF"
       d="M30.7,8.1c-3.1-4.5-8.7-7.4-14.8-7.4c-0.1,0-0.2,0-0.3,0s-0.2,0-0.3,0C9.3,0.7,3.6,3.6,0.6,8.1L0.2,8.6  l0.4,0.5c3.1,4.5,8.7,7.4,14.8,7.4c0.1,0,0.2,0,0.3,0s0.2,0,0.3,0c6.1-0.1,11.7-2.9,14.8-7.4L31,8.6L30.7,8.1z M15.6,14.6  c-3.4,0-6.2-2.7-6.2-6s2.8-6,6.2-6s6.2,2.7,6.2,6S19,14.6,15.6,14.6z M2.5,8.6c1.6-2.1,3.9-3.8,6.6-4.8C8,5.1,7.4,6.8,7.4,8.6  s0.7,3.5,1.7,4.8C6.4,12.4,4.1,10.8,2.5,8.6z M22.1,13.5c1.1-1.3,1.7-3,1.7-4.8s-0.7-3.5-1.7-4.8c2.6,1,4.9,2.7,6.6,4.8  C27.1,10.8,24.8,12.4,22.1,13.5z"
       id="path3486" />
  </svg>
  <svg
     height="17.2"
     viewBox="0 0 32 18"
     width="31.3"
     x="115"
     y="159"
     id="svg3488"
     version="1.1">
    <circle
       fill="#000000"
       cx="15.6"
       cy="8.6"
       r="2.1"
       id="circle3490" />
    <path
       fill="#000000"
       d="M30.7,8.1c-3.1-4.5-8.7-7.4-14.8-7.4c-0.1,0-0.2,0-0.3,0s-0.2,0-0.3,0C9.3,0.7,3.6,3.6,0.6,8.1L0.2,8.6  l0.4,0.5c3.1,4.5,8.7,7.4,14.8,7.4c0.1,0,0.2,0,0.3,0s0.2,0,0.3,0c6.1-0.1,11.7-2.9,14.8-7.4L31,8.6L30.7,8.1z M15.6,14.6  c-3.4,0-6.2-2.7-6.2-6s2.8-6,6.2-6s6.2,2.7,6.2,6S19,14.6,15.6,14.6z M2.5,8.6c1.6-2.1,3.9-3.8,6.6-4.8C8,5.1,7.4,6.8,7.4,8.6  s0.7,3.5,1.7,4.8C6.4,12.4,4.1,10.8,2.5,8.6z M22.1,13.5c1.1-1.3,1.7-3,1.7-4.8s-0.7-3.5-1.7-4.8c2.6,1,4.9,2.7,6.6,4.8  C27.1,10.8,24.8,12.4,22.1,13.5z"
       id="path3492" />
  </svg>
  <svg
     height="25"
     viewBox="0 0 31 25"
     width="31"
     x="5"
     y="210"
     id="svg3494"
     version="1.1">
    <g
       id="g3496">
      <path
         fill="#ffffff"
         d="M0.1,12.8L7,0.4h5.3L7.4,12.8h4.5v11.8H0.1V12.8z M18.7,12.8l6.9-12.4h5.3L26,12.8h4.5v11.8H18.7V12.8z"
         id="path3498" />
    </g>
  </svg>
  <svg
     height="25"
     viewBox="0 0 31 25"
     width="31"
     x="41"
     y="210"
     id="svg3500"
     version="1.1">
    <g
       id="g3502">
      <path
         d="M0.1,12.8L7,0.4h5.3L7.4,12.8h4.5v11.8H0.1V12.8z M18.7,12.8l6.9-12.4h5.3L26,12.8h4.5v11.8H18.7V12.8z"
         id="path3504" />
    </g>
  </svg>
  <svg
     height="25"
     viewBox="0 0 31 25"
     width="31"
     x="77"
     y="210"
     id="svg3506"
     version="1.1">
    <g
       id="g3508">
      <path
         fill="#ffffff"
         d="M12.4,12.2L5.4,24.6H0.1L5,12.2H0.5V0.4h11.8V12.2z M30.9,12.2L24,24.6h-5.3l4.9-12.4h-4.5V0.4h11.8V12.2z"
         id="path3510" />
    </g>
  </svg>
  <svg
     height="25"
     viewBox="0 0 31 25"
     width="31"
     x="113"
     y="210"
     id="svg3512"
     version="1.1">
    <g
       id="g3514">
      <path
         d="M12.4,12.2L5.4,24.6H0.1L5,12.2H0.5V0.4h11.8V12.2z M30.9,12.2L24,24.6h-5.3l4.9-12.4h-4.5V0.4h11.8V12.2z"
         id="path3516" />
    </g>
  </svg>
  <svg
     height="25"
     viewBox="0 0 25 25"
     width="25"
     x="149"
     y="210"
     id="svg3518"
     version="1.1">
    <defs
       id="defs3348" />
    <g
       transform="matrix(0.27121977,0,0,0.27121977,-0.88977756,-1.016128)"
       id="g3338">
      <path
         id="path3340"
         d="m 21.207,39.091 c 0,0.174 0,0.336 0,0.511 0.395,0.278 1.323,0.186 1.161,-0.511 -0.221,-0.187 -0.952,-0.187 -1.161,0 z" />
      <path
         id="path3523"
         d="m 82.124,64.929 c 0.012,-0.371 0.186,-0.545 0.104,-0.998 0.674,-0.487 0.615,-1.068 0.882,-2.078 0.396,-1.485 2.183,-4.016 0.662,-5.153 -0.558,0.511 -0.162,0.917 -0.441,1.428 -0.452,0.848 -1.694,0.952 -2.193,1.648 -0.546,0.766 -0.72,2.159 -0.325,2.855 -0.801,0.894 -1.288,2.274 -0.558,3.609 1.011,-0.046 1.312,-0.812 1.869,-1.311 z" />
      <path
         id="path3344"
         d="M 92.037,33.937 C 89.75,27.948 86.233,22.565 81.776,18.125 73.731,10.109 62.67,5.123 50.436,5.002 c -0.151,0 -0.29,-0.006 -0.43,-0.006 -8.091,0 -15.671,2.147 -22.229,5.873 -9.542,5.438 -16.901,14.257 -20.441,24.832 -1.497,4.457 -2.321,9.228 -2.333,14.185 0,0.046 0,0.069 0,0.115 0,2.658 0.244,5.271 0.685,7.812 0.615,3.517 1.637,6.883 3.019,10.075 6.87,15.822 22.553,26.919 40.857,27.105 0.151,0 0.29,0.011 0.441,0.011 8.067,0 15.624,-2.136 22.171,-5.85 13.627,-7.73 22.82,-22.368 22.82,-39.153 C 94.997,44.337 93.94,38.928 92.037,33.937 Z M 63.761,85.822 c -0.673,-0.081 -0.882,-0.429 -1.474,-0.104 0.022,-0.58 -1.011,-0.104 -1.057,-0.638 -1.672,0.221 -3.238,0.395 -4.504,1.056 -0.464,0.244 -0.801,0.743 -1.266,0.848 -0.312,0.058 -0.754,-0.15 -1.056,-0.104 -0.929,0.116 -2.473,1.393 -3.563,1.579 -0.499,0.069 -1.01,-0.07 -1.591,0 -0.127,0.058 -0.278,0.104 -0.418,0.162 -3.354,-0.104 -6.593,-0.627 -9.669,-1.532 0.081,-0.128 0.174,-0.255 0.116,-0.534 -1.66,-0.998 -2.832,-2.483 -4.411,-3.575 -0.034,-0.801 0.639,-0.894 1.266,-1.044 -0.418,-0.999 -2.612,-0.569 -2.519,0.835 0.022,0.477 0.359,0.441 0.417,1.057 -0.476,-0.221 -0.545,-0.859 -1.16,-0.94 0.29,-0.197 0.243,-0.72 -0.209,-0.743 -0.487,-0.093 -0.197,0.581 -0.418,0.743 -0.522,0 -0.511,-0.116 -0.94,0 0.047,0.65 0.905,0.871 1.358,0.522 0.221,0.371 0.221,0.569 0,0.952 0.395,0.58 1.369,0.522 1.996,0.406 0.209,0.034 -0.022,-0.29 -0.104,-0.313 0.221,-0.278 0.465,0.302 0.522,0.534 -0.313,0.139 -0.639,0.209 -0.951,0.243 -1.104,-0.499 -2.171,-1.045 -3.216,-1.637 -0.116,-0.255 -0.395,-0.359 -0.708,-0.418 l 0,0 c -0.221,-0.116 -0.43,-0.255 -0.639,-0.383 0,0 0,0 0,-0.012 -0.012,0 -0.012,0 -0.034,-0.012 -2.821,-1.764 -5.387,-3.877 -7.661,-6.291 -0.07,-0.14 -0.175,-0.255 -0.302,-0.313 C 15.228,69.283 11.363,60.09 11.363,50.002 c 0,-3.842 0.557,-7.544 1.602,-11.05 0.15,0.441 0.128,1.057 0.487,1.288 0.639,-0.383 -0.081,-1.462 -0.186,-2.217 0,-0.023 0.012,-0.058 0.023,-0.081 0.243,0.673 0.812,1.276 0.998,1.984 0.104,0.406 -0.14,0.686 -0.104,1.045 0.128,1.254 1.103,1.394 2.205,2.217 0.522,0.128 0.441,-0.324 0.836,-0.312 0.302,1.404 2.356,1.079 2.426,2.716 0.209,0.348 0.697,0.418 0.72,0.951 0.558,-0.104 0.499,0.406 1.161,0.43 0.197,-0.162 0.023,-0.685 0.418,-0.639 0.534,0.453 0.568,1.405 0.522,2.415 -0.384,0.963 -1.684,2.345 -0.731,3.366 -0.812,0.836 0.046,2.193 0.731,2.519 0.406,1.532 1.01,2.844 1.892,3.877 0.883,0.186 1.23,0.882 1.684,1.475 0.012,2.229 0.302,4.155 0.522,6.094 0.139,1.057 -0.244,2.112 -0.197,3.146 0.058,1.428 1.114,2.356 0.939,3.889 -0.174,0.012 -0.406,-0.047 -0.418,0.104 -0.174,0.639 0.406,0.499 0.522,0.848 0.453,1.497 0.767,3.146 2.206,3.668 0.325,0.046 0.081,-0.488 0.325,-0.511 0.104,-0.279 0.034,0.894 -0.313,0.836 0.452,0.661 1.856,1.032 2.728,0.73 -0.929,-0.673 -1.788,-1.428 -2.311,-2.519 0.303,-0.464 0.569,-0.975 0.836,-1.463 -0.058,-0.511 -0.592,-0.522 -0.836,-0.847 -0.093,-0.441 0.465,-0.232 0.627,-0.418 -0.162,-0.151 -0.093,-0.534 -0.104,-0.848 0.128,-0.14 0.511,-0.035 0.522,-0.313 0.047,-0.522 -0.836,-0.14 -0.731,-0.731 0.268,0.093 0.558,0.14 0.94,0.104 0.174,-0.359 0,-0.696 0,-1.044 1.556,0.533 2.438,-0.639 1.684,-1.788 0.302,0.012 0.685,-0.058 0.847,0.104 1.23,-0.72 1.637,-2.275 2.52,-3.366 0.034,-0.487 -0.197,-0.72 -0.104,-1.254 0.395,-0.649 1.242,-0.847 1.775,-1.369 0.477,-0.047 0.895,0.15 1.266,0 0.963,-0.384 1.358,-3.354 1.161,-5.038 0.395,-0.313 2.414,-2.391 1.984,-3.575 -0.464,-1.3 -3.319,-2.635 -5.246,-2.414 -0.488,-1.126 -1.765,-0.976 -2.729,-1.475 -0.359,-1.88 -1.138,-3.343 -3.575,-3.146 -0.476,-1.045 -1.961,-1.463 -2.101,-2.519 -0.674,-0.081 -1.138,0.047 -1.358,0.418 -0.395,-0.256 -0.592,-0.14 -1.16,-0.104 -0.187,-0.383 -0.593,-0.522 -0.731,-0.94 -0.487,0 -0.441,0.349 -0.639,-0.116 -0.87,0.395 -1.741,0.778 -1.996,1.787 -0.384,-0.197 -1.23,-0.464 -1.881,0 -1.126,-0.916 0.696,-4.085 -1.996,-3.261 0.197,-0.871 0.568,-1.591 0.73,-2.508 -0.127,-0.093 -0.255,-0.139 -0.359,-0.186 0.302,-0.383 0.801,-0.557 1.556,-0.487 0,-1.451 -1.567,-1.475 -2.705,-1.149 -0.186,-0.337 -0.627,-0.731 -1.149,-1.079 0.256,-0.418 0.604,-0.731 1.08,-0.883 0.511,-0.046 0.522,0.395 0.952,0.418 0.278,-0.104 0.348,-0.43 0.312,-0.847 0.802,-0.163 0.895,0.186 1.579,0 0.093,0.882 0.278,1.694 0.627,2.31 1.184,-1.045 -0.163,-2.855 0.627,-4.086 0.58,-0.894 1.671,-0.894 1.996,-1.996 0.059,-0.349 -0.069,-0.488 -0.104,-0.731 0.627,-0.395 0.812,-1.23 1.161,-1.904 0.673,-0.231 0.858,-0.951 1.566,-1.148 0.14,-0.418 -0.336,-0.209 -0.209,-0.627 0.302,-0.674 1.22,-0.755 1.684,-1.254 0.14,0.162 -0.093,0.615 0.209,0.836 0.673,-0.476 1.567,-0.743 2.205,-1.266 0.093,-0.464 -0.186,-0.58 -0.522,-0.627 0.012,-0.302 0.441,-0.186 0.418,-0.521 -0.069,-0.372 -0.801,-0.116 -1.044,-0.313 0.081,-0.932 0.975,-0.418 1.566,-0.836 0.104,-0.525 -0.661,-0.183 -0.836,-0.427 0.65,-0.36 1.8,-0.232 1.893,-1.161 0.94,-0.139 1.428,-0.736 1.671,-1.572 -0.046,-0.54 -0.812,-0.36 -0.73,-1.051 -0.384,0.035 -0.686,-0.018 -0.94,-0.099 -0.244,-1.021 -0.511,-2.014 -0.848,-2.948 -0.302,0.041 -0.487,0.191 -0.639,0.383 -0.022,-0.012 -0.034,-0.029 -0.058,-0.035 -0.104,0.14 -0.349,0.094 -0.546,-0.028 2.275,-1.358 4.701,-2.49 7.255,-3.366 0.116,0.15 0.244,0.296 0.499,0.319 -0.197,0.435 -0.209,0.615 0.104,0.939 0.43,0.082 0.604,-0.099 0.952,-0.099 0.209,0.14 0.267,0.436 0.522,0.522 0.801,-0.493 1.903,-1.213 1.578,-2.205 0.256,-0.128 0.396,-0.383 0.511,-0.662 2.717,-0.604 5.525,-0.923 8.416,-0.923 4.353,0 8.531,0.731 12.443,2.061 -0.349,1.01 0.069,2.728 0.998,2.885 0.72,0.122 0.894,-0.447 1.684,-0.627 0.162,0.737 0.627,1.189 1.044,1.678 0.023,0.517 -0.777,0.203 -0.626,0.841 0.209,0.645 1.647,0.662 2.101,0.418 0.128,-0.923 0.081,-2.014 0.848,-2.31 0.012,-0.093 0.012,-0.174 0,-0.238 0.731,0.4 1.439,0.824 2.136,1.271 0.116,0.342 0.476,0.568 0.487,1.073 -0.499,0.029 -0.325,-0.598 -0.848,-0.528 -0.685,0.215 -0.499,1.312 -0.836,1.893 -1.265,-0.465 -2.402,0.54 -3.459,-0.424 0.325,-0.708 -0.464,-0.667 -0.742,-1.051 0.278,-0.754 0.313,-1.103 0,-1.886 -1.405,0.075 -1.219,1.59 -0.731,2.519 -0.465,0.041 -1.23,0.012 -1.788,0.215 -0.359,0.412 -0.418,1.126 -1.265,1.051 -0.325,-0.29 0.359,-0.522 0,-0.848 -0.151,-0.203 -0.534,-0.156 -0.731,-0.313 -0.023,-0.72 -0.43,-1.045 -0.952,-1.265 0.081,-0.39 0.14,-0.743 -0.418,-0.731 -0.069,-0.447 0.337,-0.424 0.313,-0.842 -0.069,-0.267 -0.336,-0.365 -0.731,-0.313 -0.093,-0.296 0.151,-0.272 0.104,-0.522 -0.174,-0.18 -0.615,-0.087 -0.951,-0.11 -0.499,0.308 -0.418,1.185 -0.836,1.579 -0.047,0.331 0.511,0.034 0.418,0.418 0.069,0.418 -0.499,0.133 -0.522,0 -0.685,0.272 -0.859,0.853 -1.684,0.736 0.094,0.401 0.14,0.848 0.104,1.364 0.268,0.267 0.743,0.313 0.94,0.633 0.627,-0.128 1.08,-0.389 1.37,-0.848 0,-0.313 0,-0.627 0,-0.94 0.255,-0.093 0.464,-0.249 0.848,-0.209 -0.104,0.412 0.312,0.313 0.208,0.726 -0.255,-0.006 -0.511,-0.012 -0.626,0.11 -0.082,0.395 0.174,0.447 0.104,0.842 -0.268,-0.018 -0.511,-0.018 -0.627,0.11 0.022,0.272 0.243,0.371 0.627,0.313 -0.047,0.436 -0.5,0.481 -0.627,0.836 0.731,0.249 1.973,0.093 2.623,-0.104 -0.209,0.522 0.337,0.278 0.313,0.627 -1.033,-0.528 -1.068,0.423 -2.31,0.214 -0.151,0.134 -0.104,0.453 -0.104,0.737 0.928,0.482 2.298,1.033 1.671,2.72 -1.474,0.243 -3.122,-0.812 -3.981,0.115 0.615,1.277 -0.139,2.543 0.104,3.784 0.627,0.163 1.532,0.059 1.881,0.511 -0.313,0.291 -0.627,0.569 -0.627,1.161 -1.544,0.349 -1.335,2.461 -2.31,3.366 -1.893,0.708 -2.392,2.798 -3.471,4.295 0.905,0.917 0.476,2.972 -0.104,3.9 0.162,0.359 0.44,0.604 0.313,1.253 0.312,0.5 0.858,0.755 1.369,1.057 0.731,1.66 1.556,3.784 3.354,3.981 0.79,0.093 1.196,-0.592 1.893,-0.627 0.673,-0.023 0.87,0.476 1.578,0.522 1.08,-0.29 2.066,-1.23 3.157,-1.045 0.905,0.162 1.532,1.741 2.624,0.94 0.383,0.731 0.231,2.205 -0.116,2.832 0.406,1.358 1.428,2.09 1.683,3.575 1.985,1.404 -0.29,3.506 -0.104,5.363 0.093,0.928 0.929,1.625 1.057,2.623 0.232,1.95 0.824,3.378 1.787,4.828 0.012,0.303 -0.359,0.209 -0.209,0.627 0.406,1.637 2.136,-0.081 3.146,0.313 1.01,-0.638 2.182,-1.103 2.519,-2.414 1.347,-0.511 1.416,-2.299 2.101,-3.471 0.175,0 0.349,0 0.522,0 0.383,-0.558 0.418,-1.741 0,-2.299 0.477,-0.998 1.382,-1.566 2.206,-2.205 0.046,-1.323 0.557,-2.136 0.209,-3.157 -0.163,-0.487 -0.778,-0.731 -0.836,-1.161 -0.256,-1.659 1.927,-2.089 2.101,-3.877 0.278,-0.069 0.395,-0.302 0.627,-0.418 0.337,-1.845 1.637,-3.272 1.475,-5.258 -0.79,0.383 -1.765,0.477 -2.52,0.639 -0.278,-0.337 0.186,-0.592 0.313,-0.848 -0.858,-1.312 -2.611,-2.739 -2.31,-4.515 -0.696,-0.917 -1.475,-2.311 -1.579,-3.46 0.65,-0.139 0.859,1.011 1.057,1.672 0.093,0.43 0.557,0.499 0.731,0.848 0.093,1.938 1.578,2.473 1.671,4.411 0.418,0.324 0.36,1.114 0.952,1.253 0.418,0.07 0.302,-0.395 0.313,-0.731 1.126,-0.766 2.496,-1.276 3.459,-2.205 0,-0.777 0.487,-0.859 0.43,-1.475 -0.069,-0.673 -0.952,-0.917 -0.952,-1.671 0.546,0.046 0.917,0.267 1.416,0.371 1.138,3.634 1.741,7.487 1.741,11.479 0,15.59 -9.251,29.031 -22.554,35.125 -1.007,-0.046 -1.843,0.047 -2.33,0.696 z M 28.996,23.861 c -0.29,-0.093 0.093,-0.369 0.093,-0.525 0.406,0.053 0.522,-0.191 0.952,-0.104 -0.059,0.501 -0.767,0.354 -1.045,0.629 z m 0.523,1.254 c 0.243,0.034 0.43,0.127 0.627,0.22 -0.094,0.221 -0.767,0.14 -0.627,-0.22 z m -5.364,-1.779 c -0.359,-0.558 -0.127,-1.271 0,-1.892 0.012,-0.07 -0.023,-0.094 -0.069,-0.104 0.661,-0.599 1.347,-1.161 2.043,-1.719 -0.128,0.993 -0.894,1.353 -1.451,1.928 0.267,0.574 0.313,1.74 -0.523,1.787 z m -0.836,3.996 c -0.452,-0.406 -0.557,0.221 -0.626,0.522 -0.104,-0.313 -0.256,-0.592 -0.325,-0.952 0.325,0.151 0.383,-0.046 0.847,0 -0.011,0.198 0.128,0.221 0.104,0.43 z M 21.01,26.38 c 0.151,-0.197 0.441,-0.255 0.522,-0.522 0.337,0.093 0.546,0.29 0.522,0.731 -0.36,-0.081 -0.395,0.163 -0.731,0.104 0.116,-0.325 0.105,-0.337 -0.313,-0.313 z m -0.314,0.43 c -0.186,-0.081 -0.012,-0.197 0,-0.325 0.186,0.08 0.012,0.185 0,0.325 z m -2.449,11.63 c -0.023,0.244 0.151,0.29 0.128,0.522 -0.36,-0.023 -0.696,-0.012 -0.639,0.383 0.232,0.615 0.848,0.325 1.3,0.569 -0.812,0.104 -0.685,1.973 -2.02,1.706 -0.104,-0.313 -0.197,-0.662 -0.255,-1.01 0.116,-0.023 0.267,-0.047 0.464,-0.104 -0.116,-0.65 -0.371,-0.812 -0.592,-0.755 -0.023,-0.302 -0.012,-0.615 0.012,-0.917 0.697,0.036 1.08,-0.254 1.602,-0.394 z m 6.547,6.628 c -0.012,-0.255 0.162,-0.313 0.209,-0.522 0.383,0.081 0.128,0.569 -0.209,0.522 z m 60.383,-7.765 c -0.336,0.511 -0.464,1.207 -1.369,1.161 -0.232,-0.29 -0.302,-0.755 -0.313,-1.266 -0.197,-0.197 -0.384,-0.034 -0.627,0 -0.174,-0.673 -0.604,-1.079 -0.639,-1.892 1.138,0.313 0.894,1.973 2.008,2.31 0.452,0.035 0.534,-0.302 0.94,-0.313 z m -2.844,-8.474 c 0,0.023 0,0.047 0.012,0.07 0.081,0.115 0.174,0.231 0.256,0.348 0.046,0.069 0.081,0.14 0.115,0.197 0.256,0.395 0.453,0.836 0.465,1.451 -1.591,0.069 -2.206,-1.161 -1.672,-2.623 -0.673,-0.674 -1.3,-1.684 -1.566,-2.693 0.846,1.033 1.647,2.124 2.39,3.25 z m -11.225,4.794 c -1.66,-0.58 -2.6,-1.88 -4.202,-2.519 0.244,-0.859 -0.487,-1.01 -0.209,-1.579 -0.313,-0.116 -0.615,-0.22 -0.847,-0.418 -0.313,0.035 -0.465,0.232 -0.731,0.325 -1.312,-0.162 -2.473,-0.278 -3.68,0 -1.126,0.244 -2.264,1.149 -3.354,0.209 1.357,-0.081 2.321,-0.43 3.041,-1.16 -0.232,-1.776 1.335,-1.753 1.578,-3.053 0.999,0.371 1.765,0.104 2.52,-0.313 0.848,1.323 2.763,1.578 3.146,3.366 -0.546,0.093 -1.021,0.267 -1.567,-0.104 -0.197,0.615 0.488,1.172 0.836,1.578 0.325,0.081 0.383,-0.116 0.627,-0.104 0.047,-0.371 -0.035,-0.592 -0.104,-0.848 0.313,0 0.534,0.313 0.743,0.116 0.058,-0.324 0.29,-0.487 0.627,-0.533 0.069,-0.384 -0.232,-0.406 -0.209,-0.731 0.348,0 0.511,0.499 0.835,0.209 0.035,-0.94 -0.998,-0.824 -1.148,-1.579 0.627,-0.186 0.824,0.081 1.253,0.325 0.256,1.729 0.895,3.088 2.311,3.668 0.174,0.081 0.174,-0.487 0,-0.418 0.104,-0.325 0.29,0.116 0.418,0.104 0.255,0.035 -0.059,-0.476 0.324,-0.313 -0.267,-0.836 -0.429,-1.138 -0.429,-2.205 0.824,0 0.754,1.276 0.742,1.787 0.488,0.674 1.208,1.625 2.415,1.254 0.371,-0.023 0.336,0.359 0.627,0.418 0.452,0 0.673,-0.244 1.16,-0.209 -0.116,0.998 -0.023,1.787 -0.209,2.832 -2.055,-0.162 -4.062,-0.325 -5.142,-1.671 -0.313,0.312 -1.207,0.058 -1.475,0.406 -0.082,0.511 0.162,0.684 0.103,1.16 z m -9.982,-13.02 c 0.325,-0.151 0.15,0.609 -0.104,0.522 -0.047,-0.25 0.185,-0.227 0.104,-0.522 z m 13.546,6.729 c -0.197,-0.256 -0.359,-0.546 -0.627,-0.743 0.337,-0.534 0.558,-1.184 0.94,-1.683 0.499,-0.035 0.476,0.429 1.057,0.313 -0.128,0.312 -0.035,0.359 0.093,0.638 0.464,-0.231 0.94,0.012 1.381,0.104 0.082,-0.406 -0.231,-0.406 -0.429,-0.533 0.162,-0.209 0.742,-0.023 0.951,-0.209 -0.034,0.243 0.023,0.406 0.209,0.429 0.012,0.221 -0.371,0.047 -0.522,0.093 0.07,0.221 0.197,0.372 0.337,0.522 -0.151,0.012 -0.302,0.035 -0.441,0.104 -0.058,0.755 0.372,0.999 0.778,1.277 0.255,-0.209 0.708,-0.221 0.963,-0.441 0.268,0.209 0.477,0.465 0.558,0.859 -1.882,0.047 -2.961,-1.369 -5.248,-0.73 z" />
    </g>
  </svg>
  <svg
     height="24"
     viewBox="0 0 24 24"
     width="24"
     x="179"
     y="210"
     id="svg3526"
     version="1.1">
    <g
       id="g3528">
      <path
         fill="#FFFFFF"
         d="M24,2.5L14.5,12l9.5,9.5L21.5,24L12,14.5L2.5,24L0,21.5L9.5,12L0,2.5L2.5,0L12,9.5L21.5,0L24,2.5z"
         id="path3530" />
    </g>
  </svg>
  <svg
     height="20"
     viewBox="0 0 20 20"
     width="20"
     x="115"
     y="182"
     id="svg3532"
     version="1.1">
    <path
       fill="#FFFFFF"
       d="M18,0H2C0.9,0,0,0.9,0,2v16c0,1.1,0.9,2,2,2h16c1.1,0,2-0.9,2-2V2C20,0.9,19.1,0,18,0z M15,5h-1.4c-1.1,0-1.1,0.9-1.1,1.6  v2.1h2.4l-0.3,2.5h-2.1v6.2H10v-6.2H7.5V8.8H10V6.4c0-2.2,1.2-3.4,3.2-3.4C14.1,2.9,15,3,15,3V5z"
       id="path3534" />
  </svg>
  <svg
     height="20"
     viewBox="0 0 20 20"
     width="20"
     x="140"
     y="182"
     id="svg3536"
     version="1.1">
    <path
       fill="#000000"
       d="M17.1,0c0.8,0,1.5,0.3,2.1,0.9C19.7,1.4,20,2.1,20,2.9v14.2c0,0.8-0.3,1.5-0.9,2.1c-0.6,0.6-1.3,0.9-2.1,0.9  H2.9c-0.8,0-1.5-0.3-2.1-0.9S0,17.9,0,17.1V2.9c0-0.8,0.3-1.5,0.9-2.1S2.1,0,2.9,0C2.9,0,17.1,0,17.1,0z M10,6.2  c-1,0-1.9,0.4-2.7,1.1S6.3,9,6.3,10s0.4,1.9,1.1,2.7c0.7,0.7,1.6,1.1,2.7,1.1c1,0,1.9-0.4,2.7-1.1c0.7-0.7,1.1-1.6,1.1-2.7  s-0.4-1.9-1.1-2.7C11.9,6.6,11,6.2,10,6.2z M17.9,17.5V8.7h-2.2c0.1,0.4,0.1,0.8,0.1,1.2c0,1.1-0.3,2-0.8,2.9s-1.2,1.6-2.1,2.1  c-0.9,0.5-1.9,0.8-2.9,0.8S8,15.6,7.1,15c-0.9-0.5-1.6-1.2-2.1-2.1C4.4,12,4.2,11.1,4.2,10c0-0.4,0-0.9,0.1-1.2H2.1v8.7  c0,0.1,0,0.2,0.1,0.3s0.2,0.1,0.3,0.1h15c0.1,0,0.2,0,0.3-0.1C17.9,17.7,17.9,17.6,17.9,17.5L17.9,17.5z M17.9,5V2.5  c0-0.1,0-0.2-0.1-0.3c-0.1-0.1-0.2-0.1-0.3-0.1H15c-0.1,0-0.2,0-0.3,0.1c-0.1,0.1-0.1,0.2-0.1,0.3V5c0,0.1,0,0.2,0.1,0.3  c0.1,0.1,0.2,0.1,0.3,0.1h2.5c0.1,0,0.2,0,0.3-0.1C17.9,5.2,17.9,5.1,17.9,5z"
       id="path3538" />
  </svg>
  <svg
     height="20"
     viewBox="0 0 20 20"
     width="20"
     x="165"
     y="182"
     id="svg3540"
     version="1.1">
    <path
       fill="#000000"
       d="M20,3.6c-0.5,0.8-1.2,1.5-2,2.1v0.5c0,0.9-0.1,1.8-0.3,2.7c-0.2,0.9-0.6,1.8-1,2.7s-1,1.7-1.7,2.4  c-0.7,0.8-1.4,1.4-2.3,2c-0.8,0.6-1.8,1-2.9,1.3c-1.1,0.3-2.3,0.5-3.5,0.5c-2.5,0-4.6-0.6-6.3-1.7c0.3,0,0.6,0.1,1,0.1  c0.9,0,1.8-0.2,2.7-0.5s1.7-0.8,2.4-1.4c-0.9,0-1.7-0.3-2.4-0.8s-1.2-1.2-1.4-2c0.3,0.1,0.5,0.1,0.8,0.1c0.4,0,0.7,0,1.1-0.1  c-0.9-0.2-1.7-0.7-2.4-1.4S0.8,8.4,0.8,7.4v0C1.4,7.7,2,7.9,2.7,7.9C2.1,7.5,1.6,7,1.3,6.4S0.8,5.2,0.8,4.5c0-0.7,0.2-1.3,0.6-2  c1,1.3,2.3,2.2,3.7,3c1.5,0.7,3,1.1,4.7,1.2C9.8,6.5,9.7,6.1,9.7,5.8c0-1.1,0.4-2.1,1.2-2.9s1.8-1.2,2.9-1.2c1.2,0,2.2,0.4,3,1.3  c0.9-0.2,1.8-0.5,2.6-1c-0.3,1-0.9,1.7-1.8,2.3C18.4,4.1,19.2,3.9,20,3.6L20,3.6z"
       id="path3542" />
  </svg>
  <svg
     height="20"
     viewBox="0 0 20 20"
     width="20"
     x="190"
     y="182"
     id="svg3544"
     version="1.1">
    <path
       fill="#000000"
       d="M18,0H2C0.9,0,0,0.9,0,2v16c0,1.1,0.9,2,2,2h16c1.1,0,2-0.9,2-2V2C20,0.9,19.1,0,18,0z M15,5h-1.4c-1.1,0-1.1,0.9-1.1,1.6  v2.1h2.4l-0.3,2.5h-2.1v6.2H10v-6.2H7.5V8.8H10V6.4c0-2.2,1.2-3.4,3.2-3.4C14.1,2.9,15,3,15,3V5z"
       id="path3546" />
  </svg>
  <svg
     height="20"
     viewBox="0 0 20 20"
     width="20"
     x="215"
     y="182"
     id="svg3548"
     version="1.1">
    <path
       fill="#FFFFFF"
       d="M20,3.6c-0.5,0.8-1.2,1.5-2,2.1v0.5c0,0.9-0.1,1.8-0.3,2.7c-0.2,0.9-0.6,1.8-1,2.7s-1,1.7-1.7,2.4  c-0.7,0.8-1.4,1.4-2.3,2c-0.8,0.6-1.8,1-2.9,1.3c-1.1,0.3-2.3,0.5-3.5,0.5c-2.5,0-4.6-0.6-6.3-1.7c0.3,0,0.6,0.1,1,0.1  c0.9,0,1.8-0.2,2.7-0.5s1.7-0.8,2.4-1.4c-0.9,0-1.7-0.3-2.4-0.8s-1.2-1.2-1.4-2c0.3,0.1,0.5,0.1,0.8,0.1c0.4,0,0.7,0,1.1-0.1  c-0.9-0.2-1.7-0.7-2.4-1.4S0.8,8.4,0.8,7.4v0C1.4,7.7,2,7.9,2.7,7.9C2.1,7.5,1.6,7,1.3,6.4S0.8,5.2,0.8,4.5c0-0.7,0.2-1.3,0.6-2  c1,1.3,2.3,2.2,3.7,3c1.5,0.7,3,1.1,4.7,1.2C9.8,6.5,9.7,6.1,9.7,5.8c0-1.1,0.4-2.1,1.2-2.9s1.8-1.2,2.9-1.2c1.2,0,2.2,0.4,3,1.3  c0.9-0.2,1.8-0.5,2.6-1c-0.3,1-0.9,1.7-1.8,2.3C18.4,4.1,19.2,3.9,20,3.6L20,3.6z"
       id="path3550" />
  </svg>
  <svg
     height="20"
     viewBox="0 0 20 20"
     width="20"
     x="208"
     y="210"
     id="svg3552"
     version="1.1">
    <path
       fill="#55acee"
       d="M20,3.6c-0.5,0.8-1.2,1.5-2,2.1v0.5c0,0.9-0.1,1.8-0.3,2.7c-0.2,0.9-0.6,1.8-1,2.7s-1,1.7-1.7,2.4  c-0.7,0.8-1.4,1.4-2.3,2c-0.8,0.6-1.8,1-2.9,1.3c-1.1,0.3-2.3,0.5-3.5,0.5c-2.5,0-4.6-0.6-6.3-1.7c0.3,0,0.6,0.1,1,0.1  c0.9,0,1.8-0.2,2.7-0.5s1.7-0.8,2.4-1.4c-0.9,0-1.7-0.3-2.4-0.8s-1.2-1.2-1.4-2c0.3,0.1,0.5,0.1,0.8,0.1c0.4,0,0.7,0,1.1-0.1  c-0.9-0.2-1.7-0.7-2.4-1.4S0.8,8.4,0.8,7.4v0C1.4,7.7,2,7.9,2.7,7.9C2.1,7.5,1.6,7,1.3,6.4S0.8,5.2,0.8,4.5c0-0.7,0.2-1.3,0.6-2  c1,1.3,2.3,2.2,3.7,3c1.5,0.7,3,1.1,4.7,1.2C9.8,6.5,9.7,6.1,9.7,5.8c0-1.1,0.4-2.1,1.2-2.9s1.8-1.2,2.9-1.2c1.2,0,2.2,0.4,3,1.3  c0.9-0.2,1.8-0.5,2.6-1c-0.3,1-0.9,1.7-1.8,2.3C18.4,4.1,19.2,3.9,20,3.6L20,3.6z"
       id="path3554" />
  </svg>
  <svg
     height="20"
     viewBox="0 0 20 20"
     width="20"
     x="246"
     y="5"
     id="svg3556"
     version="1.1">
    <path
       fill="#FFFFFF"
       d="M10,2.9c3,0,5,0,6,0.1c1.4,0.1,2.3,0.4,2.9,0.8c0.5,0.4,0.8,1.1,1,2C19.9,6.5,20,7.8,20,9.7V10  c0,2,0,3.3-0.1,3.9c-0.1,1-0.4,1.7-0.9,2.1c-0.5,0.5-1.4,0.8-2.7,0.9c-1,0.1-2.9,0.2-5.8,0.2H10c-3,0-5,0-6-0.1  c-1.4-0.1-2.3-0.4-2.9-0.8c-0.5-0.4-0.8-1.1-1-2C0.1,13.5,0,12.2,0,10.3V10c0-2,0-3.3,0.1-3.9c0.1-1,0.4-1.7,0.9-2.1  c0.5-0.5,1.4-0.8,2.7-0.9c1-0.1,2.9-0.2,5.8-0.2C9.6,2.9,10,2.9,10,2.9z M7.5,13.7l6.2-3.7L7.5,6.2V13.7L7.5,13.7z"
       id="path3558" />
  </svg>
  <svg
     height="20"
     viewBox="0 0 20 20"
     width="20"
     x="246"
     y="30"
     id="svg3560"
     version="1.1">
    <g
       id="g3562">
      <path
         fill="#000000"
         d="M11.4,7.3c-0.2-0.2-0.5-0.3-0.8-0.3C10,6.9,9.5,7.3,9,8.1c-0.5,0.8-0.7,1.5-0.7,2.3c0,0.4,0.1,0.8,0.3,1.1   c0.2,0.3,0.5,0.4,0.9,0.4c0.6,0,1.2-0.5,1.6-1.5c0.4-1,0.6-1.7,0.6-2.3C11.7,7.8,11.6,7.5,11.4,7.3z"
         id="path3564" />
      <path
         fill="#000000"
         d="M18,0H2C0.9,0,0,0.9,0,2v16c0,1.1,0.9,2,2,2h16c1.1,0,2-0.9,2-2V2C20,0.9,19.1,0,18,0z M10.8,12.5   c-0.5,0.5-1.1,0.7-1.8,0.7c-0.7,0-1.3-0.3-1.8-0.8c-0.5-0.5-0.7-1.3-0.7-2.2c0-1.1,0.4-2.1,1.1-3.1c0.7-1,1.7-1.4,2.7-1.4   c0.6,0,1.1,0.2,1.5,0.5c0.3,0.3,0.4,0.6,0.5,0.9L12.5,6h1.7l-1.2,3.9c-0.1,0.3-0.2,0.6-0.2,0.7c0,0.2-0.1,0.3-0.1,0.4   c0,0.2,0.1,0.4,0.2,0.5c0.1,0.2,0.3,0.2,0.6,0.2c0.5,0,1-0.3,1.6-1c0.5-0.7,0.8-1.6,0.8-2.7c0-1.7-0.7-2.8-2.1-3.6   c-0.9-0.5-1.9-0.7-3-0.7c-2,0-3.7,0.6-4.9,1.9C4.7,6.9,4.2,8.2,4.2,9.8c0,1.8,0.7,3.2,2,4.2c1.2,0.9,2.6,1.4,4.3,1.4   c1.1,0,2.2-0.2,3.2-0.6c0.5-0.2,1.1-0.5,1.7-0.9l0.2-0.2l0.7,1c-0.9,0.7-1.8,1.2-2.8,1.5c-1,0.3-2,0.5-3.1,0.5   c-2.5,0-4.4-0.8-5.8-2.3C3.3,13,2.8,11.5,2.8,9.7c0-2,0.7-3.7,2.1-5c1.5-1.5,3.4-2.2,5.7-2.2c1.9,0,3.5,0.5,4.7,1.5   c1.3,1,2,2.4,2,4.2c0,1.4-0.4,2.5-1.2,3.5c-0.8,1-1.8,1.5-2.8,1.5c-0.6,0-1-0.2-1.3-0.5c-0.3-0.3-0.4-0.6-0.4-1c0,0,0-0.1,0-0.1   c0-0.1,0-0.1,0-0.2C11.3,11.9,11.1,12.2,10.8,12.5z"
         id="path3566" />
    </g>
  </svg>
  <svg
     height="20"
     viewBox="0 0 20 20"
     width="20"
     x="246"
     y="55"
     id="svg3568"
     version="1.1">
    <path
       fill="#FFFFFF"
       d="M18,20H2c-1.1,0-2-0.9-2-2V2c0-1.1,0.9-2,2-2h16c1.1,0,2,0.9,2,2v16C20,19.1,19.1,20,18,20z"
       id="path3570" />
    <path
       fill="#FFFFFF"
       d="M10.9,3.2c0.1,0,0.3,0,0.4,0.1c0.1,0.2,0.3,0.2,0.4,0.4C11.9,4,12,4.2,12.1,4.5c0.1,0.3,0.1,0.6,0.1,1  c0,0.7-0.2,1.2-0.5,1.7c-0.1,0.2-0.3,0.4-0.5,0.6c-0.2,0.2-0.4,0.3-0.6,0.5c-0.1,0.1-0.2,0.3-0.3,0.4c-0.1,0.2-0.2,0.3-0.2,0.6  c0,0.2,0.1,0.4,0.2,0.5c0.1,0.1,0.2,0.2,0.3,0.3l0.7,0.5c0.4,0.3,0.8,0.7,1.1,1.1c0.3,0.4,0.4,1,0.5,1.6c0,1-0.4,1.8-1.3,2.5  C10.8,16.6,9.5,17,7.9,17c-1.4,0-2.4-0.3-3.1-0.9c-0.7-0.5-1-1.2-1-1.9c0-0.4,0.1-0.8,0.3-1.2c0.2-0.4,0.6-0.8,1.2-1.2  c0.6-0.4,1.3-0.6,2-0.7C8,11,8.5,10.9,9,10.9c-0.1-0.2-0.3-0.4-0.4-0.6c-0.1-0.2-0.2-0.5-0.2-0.7c0-0.2,0-0.3,0.1-0.4  c0-0.1,0.1-0.2,0.1-0.3c-0.2,0-0.4,0-0.6,0c-1,0-1.8-0.3-2.4-1C5,7.2,4.7,6.5,4.7,5.8c0-1,0.4-1.8,1.2-2.6c0.6-0.5,1.1-0.8,1.7-0.9  C8.3,2.1,8.9,2,9.4,2h3.9l-1.2,1.2H10.9z M11.6,14c0-0.5-0.2-0.9-0.5-1.3c-0.3-0.4-0.9-0.8-1.6-1.3c-0.1,0-0.3,0-0.4,0  c-0.1,0-0.4,0-0.8,0c-0.4,0.1-0.8,0.1-1.2,0.3c-0.1,0-0.2,0.1-0.4,0.2c-0.2,0.1-0.4,0.2-0.6,0.4c-0.2,0.2-0.3,0.4-0.5,0.6  c-0.1,0.2-0.2,0.5-0.2,0.9c0,0.7,0.3,1.3,0.9,1.7c0.6,0.4,1.4,0.7,2.4,0.7c0.9,0,1.6-0.2,2.1-0.6C11.4,15.2,11.6,14.7,11.6,14z   M8.9,8.3c0.5,0,0.9-0.2,1.3-0.6c0.2-0.2,0.3-0.5,0.3-0.8c0-0.3,0-0.5,0-0.7c0-0.8-0.2-1.6-0.6-2.3C9.8,3.6,9.5,3.3,9.2,3.1  C8.9,2.8,8.6,2.7,8.2,2.7c-0.5,0-1,0.2-1.3,0.6C6.5,3.8,6.4,4.3,6.4,4.8C6.4,5.5,6.6,6.2,7,7c0.2,0.4,0.5,0.7,0.8,0.9  C8.1,8.2,8.5,8.3,8.9,8.3z"
       id="path3572" />
    <polygon
       fill="#FFFFFF"
       points="18.1,4.5 16.9,4.5 16.9,2 15.6,2 15.6,4.5 13.1,4.5 13.1,5.7 15.6,5.7 15.6,7 16.9,7 16.9,5.7  18.1,5.7 "
       id="polygon3574" />
  </svg>
  <svg
     height="20"
     viewBox="0 0 20 20"
     width="20"
     x="246"
     y="80"
     id="svg3576"
     version="1.1">
    <path
       fill="#FFFFFF"
       d="M17.1,0c0.8,0,1.5,0.3,2.1,0.9C19.7,1.4,20,2.1,20,2.9v14.2c0,0.8-0.3,1.5-0.9,2.1c-0.6,0.6-1.3,0.9-2.1,0.9  H2.9c-0.8,0-1.5-0.3-2.1-0.9S0,17.9,0,17.1V2.9c0-0.8,0.3-1.5,0.9-2.1S2.1,0,2.9,0C2.9,0,17.1,0,17.1,0z M10,6.2  c-1,0-1.9,0.4-2.7,1.1S6.3,9,6.3,10s0.4,1.9,1.1,2.7c0.7,0.7,1.6,1.1,2.7,1.1c1,0,1.9-0.4,2.7-1.1c0.7-0.7,1.1-1.6,1.1-2.7  s-0.4-1.9-1.1-2.7C11.9,6.6,11,6.2,10,6.2z M17.9,17.5V8.7h-2.2c0.1,0.4,0.1,0.8,0.1,1.2c0,1.1-0.3,2-0.8,2.9s-1.2,1.6-2.1,2.1  c-0.9,0.5-1.9,0.8-2.9,0.8S8,15.6,7.1,15c-0.9-0.5-1.6-1.2-2.1-2.1C4.4,12,4.2,11.1,4.2,10c0-0.4,0-0.9,0.1-1.2H2.1v8.7  c0,0.1,0,0.2,0.1,0.3s0.2,0.1,0.3,0.1h15c0.1,0,0.2,0,0.3-0.1C17.9,17.7,17.9,17.6,17.9,17.5L17.9,17.5z M17.9,5V2.5  c0-0.1,0-0.2-0.1-0.3c-0.1-0.1-0.2-0.1-0.3-0.1H15c-0.1,0-0.2,0-0.3,0.1c-0.1,0.1-0.1,0.2-0.1,0.3V5c0,0.1,0,0.2,0.1,0.3  c0.1,0.1,0.2,0.1,0.3,0.1h2.5c0.1,0,0.2,0,0.3-0.1C17.9,5.2,17.9,5.1,17.9,5z"
       id="path3578" />
  </svg>
  <svg
     height="16"
     viewBox="0 0 20 16"
     width="20"
     x="246"
     y="105"
     id="svg3580"
     version="1.1">
    <path
       fill="#FFFFFF"
       d="M19.6,0h-6.9c-1.3,0-1.5,0.5-1.5,1.8V1.7C11.2,0.4,9.3,0,8,0H1v12.7V13l2.3,1.9H8c0,0,0.6,0.9,1.1,0.9h2.3  c0.7,0,1.1-0.9,1.1-0.9h4.7l2.3-1.9v-0.3L19.6,0L19.6,0z M1.9,0.9h6l0,0c0.7,0,1.4,0.1,1.4,0.7v10.4H1.9V0.9z M18.7,12.1h-6.5V1.8  c0-0.7-0.1-0.8,0.6-0.8h6V12.1z"
       id="path3582" />
    <rect
       x="13.1"
       y="4.7"
       fill="#FFFFFF"
       width="4.7"
       height="0.9"
       id="rect3584" />
    <rect
       x="13.1"
       y="1.9"
       fill="#FFFFFF"
       width="4.7"
       height="0.9"
       id="rect3586" />
    <rect
       x="13.1"
       y="6.5"
       fill="#FFFFFF"
       width="4.7"
       height="1.9"
       id="rect3588" />
    <rect
       x="13.1"
       y="10.2"
       fill="#FFFFFF"
       width="4.7"
       height="0.9"
       id="rect3590" />
    <rect
       x="2.8"
       y="4.7"
       fill="#FFFFFF"
       width="4.7"
       height="0.9"
       id="rect3592" />
    <rect
       x="2.8"
       y="1.9"
       fill="#FFFFFF"
       width="4.7"
       height="0.9"
       id="rect3594" />
    <rect
       x="2.8"
       y="6.5"
       fill="#FFFFFF"
       width="4.7"
       height="1.9"
       id="rect3596" />
    <rect
       x="2.8"
       y="10.2"
       fill="#FFFFFF"
       width="4.7"
       height="0.9"
       id="rect3598" />
  </svg>
  <svg
     height="16"
     viewBox="0 0 20 16"
     width="20"
     x="246"
     y="126"
     id="svg3600"
     version="1.1">
    <path
       fill="#FFFFFF"
       d="M18.4,2h-5.7l-0.9-1.3c-0.2-0.5-0.6-0.7-1-0.7H8.3c-0.5,0-0.9,0.3-1,0.7L6.4,2H4.5V1h-2v1H0.9  C0.3,2,0.5,2.7,0.5,3.3v11c0,0.6-0.2,1.7,0.4,1.7h17.5c0.6,0,1.1-1.1,1.1-1.7v-11C19.5,2.7,19,2,18.4,2z M9.6,13.1  c-2.4,0-4.3-1.9-4.3-4.3s1.9-4.3,4.3-4.3s4.3,1.9,4.3,4.3S12,13.1,9.6,13.1z M16.5,6.6c-0.8,0-1.4-0.6-1.4-1.4s0.7-1.5,1.5-1.5  c0.8,0,1.5,0.7,1.5,1.5S17.4,6.6,16.5,6.6z"
       id="path3602" />
  </svg>
  <svg
     height="17.2"
     viewBox="0 0 18 18"
     width="17.5"
     x="246"
     y="147"
     id="svg3604"
     version="1.1">
    <path
       fill="#FFFFFF"
       d="M6.9,1.1c3.1,0,5.6,2.5,5.6,5.6s-2.5,5.6-5.6,5.6c-3.1,0-5.6-2.5-5.6-5.6S3.8,1.1,6.9,1.1 M6.9,0  c-3.7,0-6.7,3-6.7,6.7c0,3.7,3,6.7,6.7,6.7c3.7,0,6.7-3,6.7-6.7C13.5,2.9,10.6,0,6.9,0L6.9,0z"
       id="path3606" />
    <rect
       x="12.4"
       y="11.2"
       transform="matrix(0.7071 -0.7071 0.7071 0.7071 -5.7168 14.1519)"
       fill="#FFFFFF"
       width="3.6"
       height="5.5"
       id="rect3608" />
  </svg>
  <svg
     height="17.2"
     viewBox="0 0 18 18"
     width="17.5"
     x="246"
     y="170"
     id="svg3610"
     version="1.1">
    <path
       fill="#000000"
       d="M6.9,1.1c3.1,0,5.6,2.5,5.6,5.6s-2.5,5.6-5.6,5.6c-3.1,0-5.6-2.5-5.6-5.6S3.8,1.1,6.9,1.1 M6.9,0  c-3.7,0-6.7,3-6.7,6.7c0,3.7,3,6.7,6.7,6.7c3.7,0,6.7-3,6.7-6.7C13.5,2.9,10.6,0,6.9,0L6.9,0z"
       id="path3612" />
    <rect
       x="12.4"
       y="11.2"
       transform="matrix(0.7071 -0.7071 0.7071 0.7071 -5.7168 14.1519)"
       fill="#000000"
       width="3.6"
       height="5.5"
       id="rect3614" />
  </svg>
  <svg
     height="16"
     viewBox="0 0 17 16"
     width="16.4"
     x="246"
     y="192"
     id="svg3616"
     version="1.1">
    <path
       fill="#FFFFFF"
       d="M14.4,5.9l-3.3,3.3V6.7C11.1,6.2,10.5,6,10,6H0.8C0.3,6,0.1,6.2,0.1,6.7v8.1c0,0.6,0.1,1.1,0.7,1.1H10  c0.6,0,1.1-0.6,1.1-1.1v-2.5l3.3,3.3c0.7,0.5,1.7,0,1.7-0.8V6.7C16.1,5.9,15.1,5.4,14.4,5.9z"
       id="path3618" />
    <g
       id="g3620">
      <circle
         fill="#FFFFFF"
         cx="2.3"
         cy="2.4"
         r="2.3"
         id="circle3622" />
    </g>
    <g
       id="g3624">
      <circle
         fill="#FFFFFF"
         cx="8.5"
         cy="2.4"
         r="2.3"
         id="circle3626" />
    </g>
  </svg>
  <svg
     height="16"
     viewBox="0 0 17 16"
     width="16.4"
     x="246"
     y="213"
     id="svg3628"
     version="1.1">
    <path
       fill="#000000"
       d="M14.4,5.9l-3.3,3.3V6.7C11.1,6.2,10.5,6,10,6H0.8C0.3,6,0.1,6.2,0.1,6.7v8.1c0,0.6,0.1,1.1,0.7,1.1H10  c0.6,0,1.1-0.6,1.1-1.1v-2.5l3.3,3.3c0.7,0.5,1.7,0,1.7-0.8V6.7C16.1,5.9,15.1,5.4,14.4,5.9z"
       id="path3630" />
    <circle
       fill="#000000"
       cx="2.3"
       cy="2.4"
       r="2.3"
       id="circle3632" />
    <circle
       fill="#000000"
       cx="8.5"
       cy="2.4"
       r="2.3"
       id="circle3634" />
  </svg>
  <svg
     height="16"
     viewBox="0 0 16 16"
     width="16"
     x="221"
     y="133"
     id="svg3636"
     version="1.1">
    <g
       id="XMLID_5_">
      <polygon
         id="XMLID_3_"
         fill="#010101"
         points="0,15.3 8,0.5 16,15.3  " />
      <rect
         id="XMLID_2_"
         x="6.9"
         y="5.1"
         fill="#FFFFFF"
         width="2.3"
         height="5.7" />
      <rect
         id="XMLID_1_"
         x="6.9"
         y="11.9"
         fill="#FFFFFF"
         width="2.3"
         height="2.3" />
    </g>
  </svg>
  <svg
     height="16"
     viewBox="0 0 16 16"
     width="16"
     x="152"
     y="159"
     id="svg3642"
     version="1.1">
    <rect
       id="XMLID_4_"
       x="6.8"
       y="1.2"
       fill="#FFFFFF"
       width="3"
       height="10" />
    <rect
       id="rect3645"
       x="7"
       y="12"
       fill="#FFFFFF"
       width="3"
       height="3" />
  </svg>
  <svg
     height="16"
     viewBox="0 0 16 16"
     width="16"
     x="173"
     y="159"
     id="svg3647"
     version="1.1">
    <path
       fill="#010101"
       d="M11,15l-7-7l7-7l1.1,1.1L6.1,8l5.9,5.9L11,15z"
       id="path3649" />
  </svg>
  <svg
     height="16"
     viewBox="0 0 16 16"
     width="16"
     x="194"
     y="159"
     id="svg3651"
     version="1.1">
    <path
       fill="#FFFFFF"
       d="M7,7.9L8.1,9l-4.9,4.9h4.5v1.6H0.5V8.3h1.6v4.5L7,7.9z M8.3,0.5h7.2v7.2h-1.6V3.2L9,8.1L7.9,7l4.9-4.9H8.3  L8.3,0.5L8.3,0.5z"
       id="path3653" />
  </svg>
  <svg
     height="16"
     viewBox="0 0 16 16"
     width="16"
     x="215"
     y="159"
     id="svg3655"
     version="1.1">
    <g
       id="g3657">
      <path
         fill="#FFFFFF"
         d="M3,0.5v2h10v10.5c0,0.8,0.7,1.5,1.5,1.5s1.5-0.7,1.5-1.5V5.8V3.1V0.5H3z"
         id="path3659" />
      <g
         id="g3661">
        <path
           fill="#FFFFFF"
           d="M12,14.5c0-0.5,0-11,0-11H0v9c0,1.7,1.3,3,3,3c0,0,9.6,0,10,0C12.5,15.5,12,15,12,14.5z M6,12.5H1v-1h5    V12.5z M6,10.5H1v-1h5V10.5z M6,8.5H1v-1h5V8.5z M6,6.5H1v-1h5V6.5z M11,12.5H7v-7h4V12.5z"
           id="path3663" />
      </g>
    </g>
  </svg>
  <svg
     height="16"
     viewBox="0 0 16 16"
     width="16"
     x="5"
     y="240"
     id="svg3665"
     version="1.1">
    <path
       fill="#FFFFFF"
       d="M13.3,3.8L9.1,8l4.2,4.2l-1.1,1.1L8,9.1l-4.2,4.2l-1.1-1.1L6.9,8L2.7,3.8l1.1-1.1L8,6.9l4.2-4.2L13.3,3.8z"
       id="path3667" />
  </svg>
  <svg
     height="16"
     viewBox="0 0 16 16"
     width="16"
     x="26"
     y="240"
     id="svg3669"
     version="1.1">
    <path
       fill="#010101"
       d="M13.3,3.8L9.1,8l4.2,4.2l-1.1,1.1L8,9.1l-4.2,4.2l-1.1-1.1L6.9,8L2.7,3.8l1.1-1.1L8,6.9l4.2-4.2L13.3,3.8z"
       id="path3671" />
  </svg>
  <svg
     height="16"
     viewBox="0 0 16 16"
     width="16"
     x="47"
     y="240"
     id="svg3673"
     version="1.1">
    <g
       id="XMLID_6_">
      <path
         id="path3676"
         fill="#FFF"
         d="M6.9,8.5l-4.3,5.4H0.5l2.1-5.4l-2.1,0l0-6.4h6.4V8.5z" />
      <path
         id="path3678"
         fill="#FFF"
         d="M15.5,8.5l-4.3,5.4H9.1l2.1-5.4l-2.1,0l0-6.4h6.4V8.5z" />
    </g>
  </svg>
  <svg
     height="16"
     viewBox="0 0 16 16"
     width="16"
     x="68"
     y="240"
     id="svg3680"
     version="1.1">
    <path
       fill="#010101"
       d="M1.1,11l7-7l7,7L14,12.1l-5.9-6L2.2,12L1.1,11z"
       id="path3682" />
  </svg>
  <svg
     height="16"
     viewBox="0 0 16 16"
     width="16"
     x="89"
     y="240"
     id="svg3684"
     version="1.1">
    <g
       id="g3686">
      <polygon
         fill="#FFFFFF"
         points="3.3,10.7 4.3,15.7 6.4,15.7 5.4,10.7  "
         id="polygon3688" />
      <path
         fill="#FFFFFF"
         d="M0,6.7c0,2.5,2,3,2,3h5v-6H2C2,3.7,0,4.1,0,6.7z"
         id="path3690" />
      <path
         fill="#FFFFFF"
         d="M14.6,0.4L8,3.7v6l6.6,3.3c0.7,0.3,1.4-0.2,1.4-0.9V1.3C16,0.6,15.2,0.1,14.6,0.4z"
         id="path3692" />
    </g>
  </svg>
  <svg
     height="16"
     viewBox="0 0 16 16"
     width="16"
     x="110"
     y="240"
     id="svg3694"
     version="1.1">
    <g
       id="g3696">
      <path
         fill="#FFFFFF"
         d="M12,16H4.5l-1-1H12c0.8,0,1.5-0.6,1.5-1.5v-12l1,0.5v11.5C14.5,14.9,13.4,16,12,16z"
         id="path3698" />
      <g
         id="g3700">
        <path
           fill="#FFFFFF"
           d="M1.5,0v12c0,1.1,0.9,2,2,2h7c1.1,0,2-0.9,2-2V0H1.5z M8.5,1h1v1h-1V1z M6.5,1h1v1h-1V1z M4.5,1h1v1h-1V1z     M2.5,1h1v1h-1V1z M10.5,11h-7v-1h7V11z M10.5,9h-7V8h7V9z M10.5,7h-7V6h7V7z M10.5,5h-7V4h7V5z M11.5,2h-1V1h1V2z"
           id="path3702" />
      </g>
    </g>
  </svg>
  <svg
     height="16"
     viewBox="0 0 16 16"
     width="16"
     x="131"
     y="240"
     id="svg3704"
     version="1.1">
    <g
       id="g3706">
      <polygon
         id="polygon3708"
         fill="#FFFFFF"
         points="0,15.3 8,0.5 16,15.3  " />
      <rect
         id="rect3710"
         x="6.9"
         y="5.1"
         fill="#000000"
         width="2.3"
         height="5.7" />
      <rect
         id="rect3712"
         x="6.9"
         y="11.9"
         fill="#000000"
         width="2.3"
         height="2.3" />
    </g>
  </svg>
  <svg
     height="16"
     viewBox="0 0 16 16"
     width="16"
     x="152"
     y="240"
     id="svg3714"
     version="1.1">
    <path
       fill="#ffffff"
       d="M5.1,15l-1.1-1.1L9.8,8L3.9,2.1L5.1,1l7,7L5.1,15z"
       id="path3716" />
  </svg>
  <svg
     height="16"
     viewBox="0 0 16 16"
     width="16"
     x="173"
     y="240"
     id="svg3718"
     version="1.1">
    <path
       fill="#010101"
       d="M5.1,15l-1.1-1.1L9.8,8L3.9,2.1L5.1,1l7,7L5.1,15z"
       id="path3720" />
  </svg>
  <svg
     height="16"
     viewBox="0 0 16 16"
     width="16"
     x="194"
     y="240"
     id="svg3722"
     version="1.1">
    <ellipse
       fill="#FFFFFF"
       cx="2.5"
       cy="13.6"
       rx="2.1"
       ry="2.1"
       id="ellipse3724" />
    <path
       fill="#FFFFFF"
       d="M10.5,15.7H7.5c0-4-3.2-7.2-7.1-7.2l0,0v-3C6,5.5,10.5,10.1,10.5,15.7z"
       id="path3726" />
    <path
       fill="#FFFFFF"
       d="M12.6,15.7c0-6.8-5.5-12.3-12.2-12.3V0.3c8.4,0,15.2,6.9,15.2,15.4H12.6z"
       id="path3728" />
  </svg>
  <svg
     height="16"
     viewBox="0 0 16 16"
     width="16"
     x="215"
     y="240"
     id="svg3730"
     version="1.1">
    <ellipse
       fill="#000000"
       cx="2.5"
       cy="13.6"
       rx="2.1"
       ry="2.1"
       id="ellipse3732" />
    <path
       fill="#000000"
       d="M10.5,15.7H7.5c0-4-3.2-7.2-7.1-7.2l0,0v-3C6,5.5,10.5,10.1,10.5,15.7z"
       id="path3734" />
    <path
       fill="#000000"
       d="M12.6,15.7c0-6.8-5.5-12.3-12.2-12.3V0.3c8.4,0,15.2,6.9,15.2,15.4H12.6z"
       id="path3736" />
  </svg>
  <svg
     height="16"
     viewBox="0 0 16 16"
     width="16"
     x="236"
     y="240"
     id="svg3738"
     version="1.1">
    <path
       fill="#010101"
       d="M8,0.5c1,0,2,0.2,2.9,0.6s1.7,0.9,2.4,1.6c0.7,0.7,1.2,1.5,1.6,2.4C15.3,6,15.5,7,15.5,8c0,1-0.2,2-0.6,2.9  c-0.4,0.9-0.9,1.7-1.6,2.4c-0.7,0.7-1.5,1.3-2.4,1.6C10,15.3,9,15.5,8,15.5c-1,0-2-0.2-2.9-0.6c-0.9-0.4-1.7-0.9-2.4-1.6  c-0.7-0.7-1.2-1.5-1.6-2.4S0.5,9,0.5,8c0-1,0.2-2,0.6-2.9C1.4,4.2,2,3.4,2.7,2.7s1.5-1.3,2.4-1.6C6,0.7,7,0.5,8,0.5z M12.3,12.3  c0.6-0.6,1-1.2,1.3-2C13.9,9.6,14,8.8,14,8c0-1.1-0.3-2.1-0.8-3c-0.5-0.9-1.3-1.7-2.2-2.2S9.1,2,8,2C7.2,2,6.4,2.1,5.7,2.4  C5,2.7,4.3,3.2,3.7,3.7s-1,1.2-1.3,2S2,7.2,2,8c0,1.1,0.3,2.1,0.8,3c0.5,0.9,1.3,1.7,2.2,2.2C5.9,13.8,6.9,14,8,14  c0.8,0,1.6-0.2,2.3-0.5C11.1,13.3,11.7,12.8,12.3,12.3L12.3,12.3z M7.2,5.7V4.2h1.5v1.5H7.2z M7.2,11.8V6.6h1.5v5.2H7.2z"
       id="path3740" />
  </svg>
  <svg
     height="16"
     viewBox="0 0 16 16"
     width="16"
     x="271"
     y="5"
     id="svg3742"
     version="1.1">
    <path
       fill="#ffffff"
       d="M15.1,5.1l-7,7l-7-7l1.1-1.1l5.9,6l5.9-5.9L15.1,5.1z"
       id="path3744" />
  </svg>
  <svg
     height="16"
     viewBox="0 0 16 16"
     width="16"
     x="271"
     y="26"
     id="svg3746"
     version="1.1">
    <path
       fill="#010101"
       d="M15.1,5.1l-7,7l-7-7l1.1-1.1l5.9,6l5.9-5.9L15.1,5.1z"
       id="path3748" />
  </svg>
  <svg
     height="16"
     viewBox="0 0 16 16"
     width="16"
     x="271"
     y="47"
     id="svg3750"
     version="1.1">
    <g
       id="g3752">
      <circle
         id="XMLID_8_"
         fill="#FFFFFF"
         cx="8"
         cy="8"
         r="1" />
      <path
         id="path3755"
         fill="#FFFFFF"
         d="M15.4,7.7c-1.5-2.2-4.3-3.6-7.2-3.6c0,0-0.1,0-0.1,0s-0.1,0-0.1,0c-3,0-5.7,1.4-7.2,3.6   L0.5,8l0.2,0.3c1.5,2.2,4.3,3.6,7.2,3.6c0,0,0.1,0,0.1,0s0.1,0,0.1,0c3,0,5.7-1.4,7.2-3.6L15.5,8L15.4,7.7z M8,10.9   c-1.7,0-3-1.3-3-2.9s1.4-2.9,3-2.9s3,1.3,3,2.9S9.7,10.9,8,10.9z M1.6,8c0.8-1,1.9-1.9,3.2-2.4C4.3,6.3,4,7.1,4,8s0.3,1.7,0.8,2.4   C3.5,9.9,2.4,9,1.6,8z M11.2,10.4C11.7,9.7,12,8.9,12,8s-0.3-1.7-0.8-2.4C12.5,6.1,13.6,7,14.4,8C13.6,9,12.5,9.9,11.2,10.4z" />
    </g>
  </svg>
  <svg
     height="16"
     viewBox="0 0 16 16"
     width="16"
     x="271"
     y="68"
     id="svg3757"
     version="1.1">
    <g
       id="g3759">
      <circle
         id="circle3761"
         fill="#FFFFFF"
         cx="8"
         cy="8"
         r="1" />
      <path
         id="path3763"
         fill="#FFFFFF"
         d="M15.4,7.7c-1.5-2.2-4.3-3.6-7.2-3.6c0,0-0.1,0-0.1,0s-0.1,0-0.1,0c-3,0-5.7,1.4-7.2,3.6   L0.5,8l0.2,0.3c1.5,2.2,4.3,3.6,7.2,3.6c0,0,0.1,0,0.1,0s0.1,0,0.1,0c3,0,5.7-1.4,7.2-3.6L15.5,8L15.4,7.7z M8,10.9   c-1.7,0-3-1.3-3-2.9s1.4-2.9,3-2.9s3,1.3,3,2.9S9.7,10.9,8,10.9z M1.6,8c0.8-1,1.9-1.9,3.2-2.4C4.3,6.3,4,7.1,4,8s0.3,1.7,0.8,2.4   C3.5,9.9,2.4,9,1.6,8z M11.2,10.4C11.7,9.7,12,8.9,12,8s-0.3-1.7-0.8-2.4C12.5,6.1,13.6,7,14.4,8C13.6,9,12.5,9.9,11.2,10.4z" />
    </g>
  </svg>
  <svg
     height="16"
     viewBox="0 0 16 16"
     width="16"
     x="271"
     y="89"
     id="svg3765"
     version="1.1">
    <path
       fill="#ffffff"
       d="M1.1,11l7-7l7,7L14,12.1l-5.9-6L2.2,12L1.1,11z"
       id="path3767" />
  </svg>
  <svg
     height="16"
     viewBox="0 0 16 16"
     width="16"
     x="271"
     y="110"
     id="svg3769"
     version="1.1">
    <g
       id="g3771">
      <polygon
         fill="#FFFFFF"
         points="15,4.6 16,4.1 8,0.1 0,4.1 8,8.1 14,5.1 14,13.5 13.4,15.9 15.6,15.9 15,13.5  "
         id="polygon3773" />
      <path
         fill="#FFFFFF"
         d="M3,6.6v4c0,0,1.4,2.5,5,2.5s5-2.5,5-2.5V7.1L8,9.6L3,6.6z"
         id="path3775" />
    </g>
  </svg>
  <svg
     height="16"
     viewBox="0 0 16 16"
     width="16"
     x="271"
     y="131"
     id="svg3777"
     version="1.1">
    <path
       fill="#ffffff"
       d="M11,15l-7-7l7-7l1.1,1.1L6.1,8l5.9,5.9L11,15z"
       id="path3779" />
  </svg>
  <svg
     height="16"
     viewBox="0 0 13 16"
     width="12.1"
     x="271"
     y="152"
     id="svg3781"
     version="1.1">
    <polygon
       fill="#FFFFFF"
       points="3.2,0 0.1,3 3.2,3"
       id="polygon3783" />
    <path
       fill="#FFFFFF"
       d="M4.1,0v4h-4v12h12V0H4.1z M10.1,13h-8v-1h8V13z M10.1,11h-8v-1h8V11z M10.1,9h-8V8h8V9z M10.1,7h-8V6h8V7z"
       id="path3785" />
  </svg>
  <svg
     height="14"
     viewBox="0 0 14 14"
     width="14"
     x="271"
     y="173"
     id="svg3787"
     version="1.1">
    <g
       id="g3789">
      <path
         fill="#FFFFFF"
         d="M13,3H7.7l0.4,1H13v7.1l1-0.9c0,0,0-5.7,0-6.7S12.6,3,12.6,3"
         id="path3791" />
      <path
         fill="#FFFFFF"
         d="M11.1,5H7.3L6.2,3c0,0-0.4-1-1.1-1H4.2H3.1H2.4C1.7,2,1.2,2.8,1.2,2.8L0,4.5v7c0,1,1.1,1.5,1.1,1.5h10   c0,0,0.9-0.5,0.9-1.5v-6C12,4.5,11.1,5,11.1,5z"
         id="path3793" />
    </g>
  </svg>
  <svg
     height="14"
     viewBox="0 0 14 14"
     width="14"
     x="271"
     y="192"
     id="svg3795"
     version="1.1">
    <g
       id="g3797">
      <path
         id="path3799"
         fill="#000000"
         d="M10.1,3.7c0.9-0.2,1.6-0.4,2.4-0.7C11.6,1.9,10.4,1,9.1,0.6C9.5,1.6,9.8,2.6,10.1,3.7z" />
      <path
         id="XMLID_9_"
         fill="#000000"
         d="M4,3.7c0.3-1.1,0.6-2.2,1-3.3C3.6,0.9,2.4,1.8,1.5,3C2.3,3.3,3.1,3.6,4,3.7z" />
      <path
         id="XMLID_10_"
         fill="#000000"
         d="M4.9,3.9C5.6,4,6.3,4.1,7,4.1S8.4,4,9.1,3.9C8.9,2.6,8.5,1.4,7.9,0.2C7.6,0.2,7.3,0.1,7,0.1   s-0.5,0-0.8,0.1C5.6,1.4,5.2,2.6,4.9,3.9z" />
      <path
         id="XMLID_11_"
         fill="#000000"
         d="M9.3,9.1C9.4,8.5,9.5,7.7,9.5,7S9.4,5.5,9.3,4.9C8.5,4.9,7.8,5,7,5S5.5,4.9,4.8,4.9   C4.7,5.5,4.6,6.2,4.6,7c0,0.7,0.1,1.5,0.2,2.1C5.5,9.1,6.2,9,7,9S8.5,9.1,9.3,9.1z" />
      <path
         id="XMLID_12_"
         fill="#000000"
         d="M13,10.1c0.5-0.9,0.8-2,0.8-3.1S13.5,4.8,13,3.8c-0.9,0.3-1.8,0.7-2.7,0.9   c0.1,0.8,0.2,1.5,0.2,2.3s-0.1,1.5-0.2,2.3C11.2,9.5,12.2,9.7,13,10.1z" />
      <path
         id="XMLID_13_"
         fill="#000000"
         d="M9.1,10.1C8.5,10,7.8,9.9,7.1,9.9S5.7,10,5,10.1c0.3,1.3,0.7,2.5,1.3,3.7   c0.3,0,0.5,0.1,0.8,0.1s0.6,0,0.9-0.1C8.5,12.6,8.9,11.4,9.1,10.1z" />
      <path
         id="XMLID_14_"
         fill="#000000"
         d="M10.1,10.3c-0.3,1.1-0.6,2.2-1,3.3c1.4-0.4,2.6-1.4,3.4-2.5C11.7,10.7,10.9,10.4,10.1,10.3z" />
      <path
         id="XMLID_15_"
         fill="#000000"
         d="M3.8,9.3C3.7,8.5,3.7,7.8,3.7,7s0.1-1.5,0.2-2.3C2.9,4.5,1.9,4.2,1,3.8C0.5,4.8,0.2,5.9,0.2,7   S0.5,9.2,1,10.2C1.9,9.7,2.9,9.5,3.8,9.3z" />
      <path
         id="XMLID_16_"
         fill="#000000"
         d="M4,10.3c-0.9,0.2-1.6,0.4-2.5,0.8c0.9,1.2,2.1,2.1,3.5,2.5C4.5,12.5,4.2,11.4,4,10.3z" />
    </g>
  </svg>
  <svg
     height="14"
     viewBox="0 0 14 14"
     width="14"
     x="271"
     y="211"
     id="svg3809"
     version="1.1">
    <g
       id="g3811">
      <rect
         fill="#000000"
         id="rect3813"
         x="0.8"
         y="1.4"
         width="1.9"
         height="12.4" />
      <polygon
         fill="#000000"
         id="polygon3815"
         points="3.7,1.2 13.2,4.5 3.7,7.9  " />
      <circle
         fill="#000000"
         id="circle3817"
         cx="1.8"
         cy="1.2"
         r="1" />
    </g>
  </svg>
  <svg
     height="14"
     viewBox="0 0 14 14"
     width="14"
     x="271"
     y="230"
     id="svg3819"
     version="1.1">
    <g
       id="g3821">
      <path
         fill="#000000"
         d="M13,3H7.7l0.4,1H13v7.1l1-0.9c0,0,0-5.7,0-6.7S12.6,3,12.6,3"
         id="path3823" />
      <path
         fill="#000000"
         d="M11.1,5H7.3L6.2,3c0,0-0.4-1-1.1-1H4.2H3.1H2.4C1.7,2,1.2,2.8,1.2,2.8L0,4.5v7c0,1,1.1,1.5,1.1,1.5h10   c0,0,0.9-0.5,0.9-1.5v-6C12,4.5,11.1,5,11.1,5z"
         id="path3825" />
    </g>
  </svg>
  <svg
     height="14"
     viewBox="0 0 14 14"
     width="14"
     x="5"
     y="261"
     id="svg3827"
     version="1.1">
    <path
       fill="#FFFFFF"
       d="M7,0.2c-2.8,0-5.1,2.3-5.1,5.1C1.9,7,3,8.4,4.3,10l2.9,3.9l3-4.2c1.2-1.5,2-2.6,2-4.2C12.2,2.5,9.8,0.2,7,0.2z   M7,7.5c-1.2,0-2.2-0.9-2.2-2.2S5.8,3.1,7,3.1S9.2,4,9.2,5.3S8.2,7.5,7,7.5z"
       id="path3829" />
  </svg>
  <svg
     height="14"
     viewBox="0 0 14 14"
     width="14"
     x="24"
     y="261"
     id="svg3831"
     version="1.1">
    <g
       id="g3833">
      <polygon
         fill="#000000"
         points="4.6,0.2 1.9,2.8 4.6,2.8"
         id="polygon3835" />
      <path
         class="st0"
         d="M5.3,0.2v3.4H1.9v10.1h10.1V0.2H5.3z M10.4,11.2H3.6v-0.8h6.8V11.2z M10.4,9.5H3.6V8.7h6.8V9.5z M10.4,7.8H3.6   V7h6.8V7.8z M10.4,6.2H3.6V5.3h6.8V6.2z"
         id="path3837" />
    </g>
  </svg>
  <svg
     height="14"
     viewBox="0 0 14 14"
     width="14"
     x="43"
     y="261"
     id="svg3839"
     version="1.1">
    <path
       fill="#000000"
       d="M7,0.2c-2.8,0-5.1,2.3-5.1,5.1C1.9,7,3,8.4,4.3,10l2.9,3.9l3-4.2c1.2-1.5,2-2.6,2-4.2C12.2,2.5,9.8,0.2,7,0.2z   M7,7.5c-1.2,0-2.2-0.9-2.2-2.2S5.8,3.1,7,3.1S9.2,4,9.2,5.3S8.2,7.5,7,7.5z"
       id="path3841" />
  </svg>
  <svg
     height="7"
     viewBox="0 0 13 7"
     width="13"
     x="271"
     y="249"
     id="svg3843"
     version="1.1">
    <polygon
       points="9.5,1 9.1,1.4 10.8,3.2 1,3.2 1,3.8 10.8,3.8 9.1,5.6 9.5,6 12,3.5 "
       id="polygon3845" />
  </svg>
  <svg
     height="7"
     viewBox="0 0 13 7"
     width="13"
     x="62"
     y="261"
     id="svg3847"
     version="1.1">
    <polygon
       points="3.5,1 3.9,1.4 2.2,3.2 12,3.2 12,3.8 2.2,3.8 3.9,5.6 3.5,6 1,3.5 "
       id="polygon3849" />
  </svg>
  <g
     transform="matrix(0,-1,1,0,0,0)"
     style="font-style:normal;font-variant:normal;font-weight:normal;font-stretch:normal;font-size:13.75625038px;line-height:125%;font-family:'TradeGothic LT BdCondTwenty';-inkscape-font-specification:'TradeGothic LT BdCondTwenty, Normal';text-align:start;letter-spacing:0px;word-spacing:0px;writing-mode:lr-tb;text-anchor:start;fill:#ffffff;fill-opacity:1;stroke:none;stroke-width:1px;stroke-linecap:butt;stroke-linejoin:miter;stroke-opacity:1"
     id="text4671">
    <path
       d="m -59.30669,131.75937 4.759663,0 0,-1.48568 -3.053888,0 0,-2.91632 2.201,0 0,-1.48568 -2.201,0 0,-2.55866 2.8613,0 0,-1.48567 -4.567075,0 0,9.93201 z"
       style=""
       id="path4684" />
    <path
       d="m -50.098814,124.27597 1.623237,-0.17883 c -0.04127,-0.33015 -0.123806,-0.6603 -0.247612,-0.96294 -0.137563,-0.30264 -0.288882,-0.55025 -0.481469,-0.77035 -0.192588,-0.20634 -0.426444,-0.37142 -0.701569,-0.49523 -0.275125,-0.11005 -0.591519,-0.17883 -0.935425,-0.17883 -0.852887,0.0138 -1.499431,0.23386 -1.953388,0.64655 -0.467712,0.42644 -0.687812,1.03172 -0.687812,1.82958 0.01376,0.48147 0.09629,0.89415 0.261369,1.25182 0.151318,0.35766 0.357662,0.68781 0.632787,0.96293 0.261369,0.28889 0.536494,0.55026 0.839132,0.78411 0.288881,0.24761 0.564006,0.48147 0.839131,0.71533 0.261369,0.24761 0.481469,0.49522 0.646544,0.74283 0.165075,0.26137 0.247612,0.55025 0.247612,0.8804 0,0.30264 -0.09629,0.52274 -0.275125,0.67406 -0.192587,0.16508 -0.426444,0.23386 -0.715325,0.23386 -0.275125,0 -0.508981,-0.12381 -0.687812,-0.37142 -0.192588,-0.24761 -0.302638,-0.61903 -0.33015,-1.12801 l -1.623238,0.23385 c 0,0.37142 0.06878,0.72908 0.206344,1.05923 0.123806,0.34391 0.288881,0.63279 0.508981,0.8804 0.206344,0.24762 0.467713,0.45396 0.784106,0.59152 0.302638,0.15132 0.6603,0.2201 1.059232,0.2201 0.398931,0 0.77035,-0.055 1.1005,-0.16507 0.33015,-0.11005 0.605275,-0.27513 0.852887,-0.49523 0.233856,-0.2201 0.412688,-0.48147 0.55025,-0.79786 0.123806,-0.30264 0.192588,-0.67406 0.192588,-1.08674 -0.02751,-0.46772 -0.11005,-0.86665 -0.261369,-1.21055 -0.165075,-0.33015 -0.371419,-0.6603 -0.632788,-0.96294 -0.275125,-0.30264 -0.55025,-0.56401 -0.839131,-0.81162 -0.302637,-0.23386 -0.577762,-0.46771 -0.839131,-0.71533 -0.275125,-0.23385 -0.481469,-0.46771 -0.646544,-0.71532 -0.165075,-0.23386 -0.247612,-0.49523 -0.247612,-0.78411 0,-0.31639 0.06878,-0.564 0.2201,-0.72908 0.137562,-0.16507 0.357662,-0.24761 0.632787,-0.24761 0.08254,0.0138 0.178831,0.0275 0.288881,0.055 0.09629,0.0275 0.192588,0.0963 0.288882,0.17883 0.08254,0.0963 0.165075,0.20635 0.2201,0.34391 0.05503,0.13756 0.08254,0.31639 0.11005,0.52274 z"
       style=""
       id="path4686" />
    <path
       d="m -45.402989,126.28438 0,-3.05389 0.6603,0 c 0.275125,0.0138 0.508981,0.0413 0.701569,0.0825 0.192587,0.055 0.343906,0.13756 0.453956,0.24761 0.11005,0.12381 0.178831,0.27513 0.233856,0.46772 0.04127,0.19258 0.06878,0.4402 0.06878,0.72908 0,0.30263 -0.02751,0.55025 -0.06878,0.74283 -0.05503,0.19259 -0.137562,0.35767 -0.247612,0.46772 -0.123807,0.1238 -0.275125,0.20634 -0.453957,0.24761 -0.192587,0.055 -0.412687,0.0688 -0.687812,0.0688 l -0.6603,0 z m -1.705775,5.47499 1.705775,0 0,-4.07185 0.742837,0 c 0.522738,0 0.99045,-0.055 1.375625,-0.16508 0.385175,-0.0963 0.701569,-0.26136 0.962938,-0.50898 0.247612,-0.23385 0.4402,-0.53649 0.564006,-0.90791 0.11005,-0.35766 0.178831,-0.81162 0.178831,-1.34811 -0.01376,-1.04548 -0.261368,-1.80207 -0.756593,-2.25603 -0.495225,-0.4402 -1.279332,-0.67405 -2.324807,-0.67405 l -2.448612,0 0,9.93201 z"
       style=""
       id="path4688" />
    <path
       d="m -38.68994,128.07269 0.674056,-4.26443 0.02751,0 0.674056,4.26443 -1.375625,0 z m -0.55025,3.68668 0.302638,-2.201 1.87085,0 0.302637,2.201 1.65075,0 -1.829581,-9.93201 -2.118463,0 -1.829581,9.93201 1.65075,0 z"
       style=""
       id="path4690" />
    <path
       d="m -29.275719,119.50255 -0.77035,0 c -0.01376,0.20634 -0.05503,0.35766 -0.137562,0.45396 -0.08254,0.11005 -0.233857,0.15131 -0.4402,0.15131 -0.165075,0 -0.302638,-0.0413 -0.426444,-0.0963 -0.137563,-0.055 -0.261369,-0.11005 -0.398931,-0.17883 -0.137563,-0.055 -0.288882,-0.12381 -0.426444,-0.17883 -0.151319,-0.055 -0.302638,-0.0825 -0.467713,-0.0825 -0.233856,0.0138 -0.426444,0.0688 -0.591519,0.15132 -0.165075,0.0963 -0.302637,0.2201 -0.412687,0.37142 -0.11005,0.16507 -0.206344,0.33015 -0.261369,0.52274 -0.06878,0.19258 -0.123806,0.38517 -0.151319,0.57776 l 0.77035,0 c 0,-0.19259 0.05503,-0.34391 0.137563,-0.45396 0.08254,-0.0963 0.2201,-0.15132 0.4402,-0.15132 0.151319,0.0138 0.288881,0.0413 0.426444,0.0825 0.123806,0.055 0.261369,0.11005 0.398931,0.17883 0.137563,0.0825 0.275125,0.13756 0.426444,0.19259 0.137562,0.055 0.302637,0.0825 0.467712,0.0825 0.247613,0 0.4402,-0.055 0.591519,-0.15132 0.137563,-0.0825 0.275125,-0.20635 0.398931,-0.37142 0.11005,-0.15132 0.206344,-0.33015 0.275125,-0.52274 0.05503,-0.19259 0.11005,-0.38517 0.151319,-0.57776 z m -4.855956,12.25682 1.5407,0 0,-6.20407 0.02751,0 2.173488,6.20407 1.485675,0 0,-9.93201 -1.5407,0 0,5.68133 -0.02751,0 -2.077194,-5.68133 -1.581968,0 0,9.93201 z"
       style=""
       id="path4692" />
    <path
       d="m -25.712851,128.07269 0.674056,-4.26443 0.02751,0 0.674056,4.26443 -1.375625,0 z m -0.55025,3.68668 0.302637,-2.201 1.870851,0 0.302637,2.201 1.65075,0 -1.829581,-9.93201 -2.118463,0 -1.829581,9.93201 1.65075,0 z"
       style=""
       id="path4694" />
  </g>
</svg>
